<svg id="Camada_1" data-name="Camada 1" xmlns="http://www.w3.org/2000/svg" xmlns:xlink="http://www.w3.org/1999/xlink" viewBox="0 0 562.4 355.33"><defs><style>.cls-1,.cls-2,.cls-3{fill:none;}.cls-1{clip-rule:evenodd;}.cls-3{fill-rule:evenodd;}.cls-4{clip-path:url(#clip-path);}.cls-5{clip-path:url(#clip-path-2);}.cls-6{fill:#0dffd1;}.cls-7{clip-path:url(#clip-path-3);}.cls-8{fill:#dde3e9;}.cls-9{clip-path:url(#clip-path-5);}.cls-10{fill:#c1dee2;}.cls-11{clip-path:url(#clip-path-7);}.cls-12{clip-path:url(#clip-path-9);}.cls-13{opacity:0.6;isolation:isolate;}.cls-14{clip-path:url(#clip-path-11);}.cls-15{clip-path:url(#clip-path-12);}.cls-16{clip-path:url(#clip-path-14);}.cls-17{fill:#f2f2f2;}.cls-18{clip-path:url(#clip-path-16);}.cls-19{fill:#fff;}.cls-20{clip-path:url(#clip-path-18);}.cls-21{clip-path:url(#clip-path-20);}.cls-22{clip-path:url(#clip-path-22);}.cls-23{clip-path:url(#clip-path-24);}.cls-24{clip-path:url(#clip-path-26);}.cls-25{clip-path:url(#clip-path-28);}.cls-26{fill:#c5cfd6;}.cls-27{clip-path:url(#clip-path-30);}.cls-28{clip-path:url(#clip-path-32);}.cls-29{clip-path:url(#clip-path-34);}.cls-30{clip-path:url(#clip-path-36);}.cls-31{clip-path:url(#clip-path-38);}.cls-32{clip-path:url(#clip-path-40);}.cls-33{clip-path:url(#clip-path-42);}.cls-34{clip-path:url(#clip-path-44);}.cls-35{fill:#afb9c5;}.cls-36{clip-path:url(#clip-path-46);}.cls-37{clip-path:url(#clip-path-48);}.cls-38{clip-path:url(#clip-path-50);}.cls-39{clip-path:url(#clip-path-52);}.cls-40{clip-path:url(#clip-path-54);}.cls-41{clip-path:url(#clip-path-56);}.cls-42{clip-path:url(#clip-path-58);}.cls-43{clip-path:url(#clip-path-60);}.cls-44{clip-path:url(#clip-path-62);}.cls-45{clip-path:url(#clip-path-64);}.cls-46{clip-path:url(#clip-path-66);}.cls-47{clip-path:url(#clip-path-68);}.cls-48{clip-path:url(#clip-path-70);}.cls-49{clip-path:url(#clip-path-72);}.cls-50{clip-path:url(#clip-path-74);}.cls-51{clip-path:url(#clip-path-76);}.cls-52{clip-path:url(#clip-path-78);}.cls-53{clip-path:url(#clip-path-80);}.cls-54{clip-path:url(#clip-path-82);}.cls-55{clip-path:url(#clip-path-84);}.cls-56{clip-path:url(#clip-path-86);}.cls-57{clip-path:url(#clip-path-88);}.cls-58{clip-path:url(#clip-path-90);}.cls-59{clip-path:url(#clip-path-92);}.cls-60{clip-path:url(#clip-path-94);}.cls-61{clip-path:url(#clip-path-96);}.cls-62{clip-path:url(#clip-path-98);}.cls-63{clip-path:url(#clip-path-100);}.cls-64{clip-path:url(#clip-path-102);}.cls-65{clip-path:url(#clip-path-104);}.cls-66{clip-path:url(#clip-path-106);}.cls-67{clip-path:url(#clip-path-108);}.cls-68{clip-path:url(#clip-path-110);}.cls-69{clip-path:url(#clip-path-112);}.cls-70{clip-path:url(#clip-path-114);}.cls-71{clip-path:url(#clip-path-116);}.cls-72{clip-path:url(#clip-path-118);}.cls-73{clip-path:url(#clip-path-120);}.cls-74{clip-path:url(#clip-path-122);}.cls-75{clip-path:url(#clip-path-124);}.cls-76{clip-path:url(#clip-path-126);}.cls-77{clip-path:url(#clip-path-128);}.cls-78{clip-path:url(#clip-path-130);}.cls-79{clip-path:url(#clip-path-132);}.cls-80{clip-path:url(#clip-path-134);}.cls-81{clip-path:url(#clip-path-136);}.cls-82{clip-path:url(#clip-path-138);}.cls-83{clip-path:url(#clip-path-140);}.cls-84{clip-path:url(#clip-path-142);}.cls-85{clip-path:url(#clip-path-144);}.cls-86{clip-path:url(#clip-path-146);}.cls-87{clip-path:url(#clip-path-148);}.cls-88{clip-path:url(#clip-path-150);}.cls-89{clip-path:url(#clip-path-152);}.cls-90{clip-path:url(#clip-path-154);}.cls-91{clip-path:url(#clip-path-156);}.cls-92{clip-path:url(#clip-path-158);}.cls-93{clip-path:url(#clip-path-160);}.cls-94{clip-path:url(#clip-path-162);}.cls-95{clip-path:url(#clip-path-164);}.cls-96{clip-path:url(#clip-path-166);}.cls-97{clip-path:url(#clip-path-168);}.cls-98{clip-path:url(#clip-path-170);}.cls-99{clip-path:url(#clip-path-172);}.cls-100{clip-path:url(#clip-path-174);}.cls-101{clip-path:url(#clip-path-176);}.cls-102{clip-path:url(#clip-path-178);}.cls-103{clip-path:url(#clip-path-180);}.cls-104{clip-path:url(#clip-path-182);}.cls-105{clip-path:url(#clip-path-184);}.cls-106{clip-path:url(#clip-path-186);}.cls-107{clip-path:url(#clip-path-188);}.cls-108{clip-path:url(#clip-path-190);}.cls-109{clip-path:url(#clip-path-192);}.cls-110{clip-path:url(#clip-path-194);}.cls-111{clip-path:url(#clip-path-196);}.cls-112{clip-path:url(#clip-path-197);}.cls-113{fill:#ffb24d;}.cls-114{clip-path:url(#clip-path-198);}.cls-115{clip-path:url(#clip-path-200);}.cls-116{clip-path:url(#clip-path-202);}.cls-117{clip-path:url(#clip-path-204);}.cls-118{clip-path:url(#clip-path-206);}.cls-119{clip-path:url(#clip-path-208);}.cls-120{clip-path:url(#clip-path-210);}.cls-121{clip-path:url(#clip-path-212);}.cls-122{clip-path:url(#clip-path-214);}.cls-123{clip-path:url(#clip-path-216);}.cls-124{clip-path:url(#clip-path-218);}.cls-125{clip-path:url(#clip-path-219);}.cls-126{clip-path:url(#clip-path-220);}.cls-127{clip-path:url(#clip-path-222);}.cls-128{clip-path:url(#clip-path-224);}.cls-129{clip-path:url(#clip-path-226);}.cls-130{clip-path:url(#clip-path-228);}.cls-131{clip-path:url(#clip-path-230);}.cls-132{clip-path:url(#clip-path-232);}.cls-133{clip-path:url(#clip-path-234);}.cls-134{clip-path:url(#clip-path-238);}.cls-135{clip-path:url(#clip-path-240);}.cls-136{clip-path:url(#clip-path-241);}.cls-137{clip-path:url(#clip-path-242);}.cls-138{clip-path:url(#clip-path-244);}.cls-139{clip-path:url(#clip-path-246);}.cls-140{clip-path:url(#clip-path-248);}.cls-141{clip-path:url(#clip-path-250);}.cls-142{clip-path:url(#clip-path-252);}.cls-143{clip-path:url(#clip-path-254);}.cls-144{clip-path:url(#clip-path-256);}.cls-145{clip-path:url(#clip-path-258);}.cls-146{clip-path:url(#clip-path-260);}.cls-147{clip-path:url(#clip-path-262);}.cls-148{clip-path:url(#clip-path-264);}.cls-149{clip-path:url(#clip-path-266);}.cls-150{clip-path:url(#clip-path-268);}.cls-151{clip-path:url(#clip-path-270);}.cls-152{clip-path:url(#clip-path-272);}.cls-153{clip-path:url(#clip-path-273);}.cls-154{fill:#00b38f;}.cls-155{clip-path:url(#clip-path-274);}.cls-156{clip-path:url(#clip-path-276);}.cls-157{clip-path:url(#clip-path-277);}.cls-158{fill:#805926;}.cls-159{clip-path:url(#clip-path-278);}.cls-160{fill:#191847;}.cls-161{clip-path:url(#clip-path-280);}.cls-162{clip-path:url(#clip-path-281);}.cls-163{clip-path:url(#clip-path-282);}.cls-164{clip-path:url(#clip-path-284);}.cls-165{clip-path:url(#clip-path-286);}.cls-166{fill:#0dffcf;}.cls-167{clip-path:url(#clip-path-288);}.cls-168{fill:#e4e4e4;}.cls-169{clip-path:url(#clip-path-290);}.cls-170{clip-path:url(#clip-path-292);}.cls-171{clip-path:url(#clip-path-293);}.cls-172{clip-path:url(#clip-path-294);}.cls-173{fill:#b33e12;}.cls-174{clip-path:url(#clip-path-296);}.cls-175{fill:#ff4f0d;}.cls-176{clip-path:url(#clip-path-298);}.cls-177{clip-path:url(#clip-path-299);}.cls-178{fill:#d4a181;}.cls-179{clip-path:url(#clip-path-300);}.cls-180{clip-path:url(#clip-path-302);}.cls-181{clip-path:url(#clip-path-303);}.cls-182{fill:#005380;}.cls-183{clip-path:url(#clip-path-304);}.cls-184{fill:#266080;}.cls-185{clip-path:url(#clip-path-306);}.cls-186{fill:#0085cc;}.cls-187{clip-path:url(#clip-path-308);}.cls-188{clip-path:url(#clip-path-310);}.cls-189{clip-path:url(#clip-path-311);}.cls-190{clip-path:url(#clip-path-312);}.cls-191{clip-path:url(#clip-path-314);}.cls-192{fill:#ff9000;}.cls-193{clip-path:url(#clip-path-317);}.cls-194{clip-path:url(#clip-path-320);}.cls-195{clip-path:url(#clip-path-323);}.cls-196{opacity:0.1;}.cls-197{clip-path:url(#clip-path-325);}.cls-198{clip-path:url(#clip-path-326);}.cls-199{clip-path:url(#clip-path-327);}.cls-200{clip-path:url(#clip-path-329);}.cls-201{clip-path:url(#clip-path-330);}.cls-202{fill:#b28b67;}.cls-203{clip-path:url(#clip-path-333);}.cls-204{clip-path:url(#clip-path-335);}.cls-205{clip-path:url(#clip-path-337);}.cls-206{clip-path:url(#clip-path-339);}.cls-207{clip-path:url(#clip-path-341);}.cls-208{clip-path:url(#clip-path-343);}.cls-209{clip-path:url(#clip-path-344);}.cls-210{clip-path:url(#clip-path-347);}.cls-211{fill:#69a1ac;}.cls-212{clip-path:url(#clip-path-350);}.cls-213{clip-path:url(#clip-path-353);}.cls-214{fill:#0cd5e8;}.cls-215{clip-path:url(#clip-path-356);}.cls-216{clip-path:url(#clip-path-359);}.cls-217{opacity:0.4;}</style><clipPath id="clip-path" transform="translate(2.64 2.64)"><path class="cls-1" d="M543,66.58a3.8,3.8,0,0,0-1.27-.34,20,20,0,0,0-3.94-.37A73.28,73.28,0,0,0,525.64,67c-2.54.44-5.6,1.91-8.13,1.11a17.29,17.29,0,0,0-13,.67,18.24,18.24,0,0,0-8.4,9,22.19,22.19,0,0,0-1.58,4q-.19.43-.36.87-.45,1.25-.84,2.52c-.11.36-.38,1.16-.05,1.31a23.77,23.77,0,0,0-1.38,3,43,43,0,0,0-2.74,9.42,14.89,14.89,0,0,0,0,3.53c.07.58,0,1.75.44,2.19.83.93,1.26-.38,1.17-1-.72-4.76.66-9.23,2.31-13.7A27.94,27.94,0,0,1,497.82,82a20.05,20.05,0,0,1,5.45-4.76,85.48,85.48,0,0,1,8.31-4.11c1.85-.84,3.7-1.66,5.61-2.38a5.49,5.49,0,0,1,1.55-.58,15.21,15.21,0,0,1,3.36,1,70.91,70.91,0,0,0,9.6,2.5,12.23,12.23,0,0,0,6-.73,5.5,5.5,0,0,0,.95-.51,13.52,13.52,0,0,0,4-2.28,15.7,15.7,0,0,0,1.89-2,1.06,1.06,0,0,0,.24-.67c.13-.07.22-.15.24-.24.14-.68-1.16-.69-2-.65"/></clipPath><clipPath id="clip-path-2" transform="translate(2.64 2.64)"><rect class="cls-2" x="88.74" y="-56.7" width="494.44" height="418.37"/></clipPath><clipPath id="clip-path-3" transform="translate(2.64 2.64)"><path class="cls-1" d="M138.81,130c-.8.64-1.58,1.3-2.35,2-.58.52-1.61,1.15-1.81,1.94s.46,1.6,1,2.09a16.34,16.34,0,0,0,10,4.71,28,28,0,0,0,16.72-4.17,12.69,12.69,0,0,0,6.72-9.65,46.87,46.87,0,0,1,12.36,7.5,32.27,32.27,0,0,1,4.78,5.13c.92,1.21,1.8,2.44,2.63,3.71.35.56.72,1.54,1.31,1.86a1,1,0,0,0,1.5-1c0-.65-.73-1.39-1.05-1.91-.54-.88-1.08-1.74-1.66-2.59-.93-1.37-1.89-2.72-2.94-4a36.94,36.94,0,0,0-8.47-7.29,37.62,37.62,0,0,0-19.77-6.56c-4.46-.13-8.22,1.39-12,3.67a58.5,58.5,0,0,0-7,4.56"/></clipPath><clipPath id="clip-path-5" transform="translate(2.64 2.64)"><path class="cls-1" d="M194.52,102.82A169.68,169.68,0,0,0,180,89.08c-3.07-2.48-6.29-4.74-9.45-7.1l1.07,1c-1-.67-2.28-1-3.33-1.67S166,79.81,164.93,79c-2.14-1.55-4.24-3.14-6.44-4.61-2.44-1.65-5-3.16-7.47-4.74a64,64,0,0,0-6.5-3.91c-1.23-.6-2.47-1.31-3.7-1.93-.42-.21-4.61-2.86-4.6-2.87.23-.18,2.34.82,2.67.95,1,.39,1.86.86,2.78,1.32a12.45,12.45,0,0,1-1.12-3.13c-.07-.34-.6-2.81-.33-3a35.7,35.7,0,0,1,1.55,4.74,6.59,6.59,0,0,0,.16,1.17c.18.52.17.37.57.66A23.19,23.19,0,0,0,145,65a18.31,18.31,0,0,0,2.56,1.46,71.43,71.43,0,0,1,7.18,4.49,17.34,17.34,0,0,1-1.4-3.56c-.08-.3-.94-3-.73-3.11s1.88,3.87,2,4.26c.18.71.22,1.5.45,2.19s1,1,1.72,1.48c2.56,1.63,5,3.36,7.48,5.17,2.66-4.73-.41-10.44-3-14.4a33.1,33.1,0,0,0-7-7.45,67.71,67.71,0,0,0-11.61-7.23,45.53,45.53,0,0,0-15.07-4.63,48,48,0,0,0-8.39-.24,14.26,14.26,0,0,0-4,.68,13,13,0,0,0-1.71.74c-.42.22-1.44.44-1.69.76A12.27,12.27,0,0,0,108.92,54,23.79,23.79,0,0,0,111.37,63a27.51,27.51,0,0,0,5.85,8.19A65.21,65.21,0,0,0,123.33,76c7.48,5.44,17,10.18,26.64,9a25.73,25.73,0,0,0,8.9-3,22,22,0,0,0,1.93-1.12c.41-.28,1.53-1.53,1.95-1.58.58-.06,1.82,1.11,2.36,1.47q6.15,4.06,12,8.54c4.16,3.16,8.12,6.54,12,10.08,1.63,1.5,3.26,3,4.85,4.56.37.37,1.27,1.7,1.94,1.76a.61.61,0,0,0,.65-.72c-.11-.68-1.54-1.7-2-2.19"/></clipPath><clipPath id="clip-path-7" transform="translate(2.64 2.64)"><path class="cls-1" d="M537.87,91a25.17,25.17,0,0,0-5.62-.33,34.92,34.92,0,0,0-25.8,12.24c-5.36,6.34-6.83,14.22-7.89,22.19-.1.79-.15,1.57-.21,2.37,0,.17,0,.32-.05.46-.42.37-.64.81-.39,1.28a53.68,53.68,0,0,0-2.36,6.19c-1.95,6.24-3.95,12.6-2.72,19.17a92.62,92.62,0,0,1,1.61-10.86c0-.21.09-.41.13-.61l0-.06a23.55,23.55,0,0,1,1-3.19v0l.17-.41q.17-.42.36-.84l.12-.29c.59-1.44.84-3.06,1.36-4.55.13-.34.26-.68.4-1l0-.06c.38-.91.79-1.8,1.22-2.68a3.19,3.19,0,0,0,.57-1,7.15,7.15,0,0,0,.47-.91l.77-1.49h0l.77-1.42.17-.31.28-.5c.86-1.54,1.78-3.05,2.73-4.55.33-.53,1.14-1.29,1.3-1.89,0,0,0,0,0-.07a33.79,33.79,0,0,1,7.28-7.67c-.35.37-1.08,1.63-1.27,1.88-.59.76-1.24,1.48-1.88,2.2a46.89,46.89,0,0,0-3.28,4,76,76,0,0,0-4.9,8l-.05,0a19.7,19.7,0,0,0-1.76,3.38c2.14-1,4.5-1.63,6.69-2.51a55.35,55.35,0,0,0,6.38-3,70.17,70.17,0,0,0,8.14-5.19,32,32,0,0,0,7.63-7,36.56,36.56,0,0,0,6.45-10.1,30,30,0,0,0,1.62-5.79l.06-.28a20.32,20.32,0,0,0,.91-2.09c.41-1.13,1.38-2.37-.44-2.77"/></clipPath><clipPath id="clip-path-9" transform="translate(2.64 2.64)"><path class="cls-1" d="M129.29,104.52c-.46.15-1-.45-.42-.59s.47-.15.69-.54.29-.72.44-1.06a13.25,13.25,0,0,1,1.18-2,16.25,16.25,0,0,1,3.57-3.55,25.57,25.57,0,0,1,7.85-4.12,31.38,31.38,0,0,1,14.09-.47c2.79.55,5.33,1.49,7.18,3.74a9.24,9.24,0,0,1,2,3.87c.09.38.07.8.17,1.17.16.57.09.42.76.53l2.18.37a54.61,54.61,0,0,1,5.65,1.21,14.12,14.12,0,0,1,1.79.64c.44.19,2.19.78,2.41,1.35.35.95-.84.52-1.21.31s-.65-.35-1-.51a16.44,16.44,0,0,0-2.63-.93c-1-.26-2-.46-3-.65s-1.85-.35-2.78-.51l-1.55-.26c-.18,0-.49-.18-.47.05a25.1,25.1,0,0,0-3.37-.24c-1.35-.07-2.71-.13-4.07-.08a28.86,28.86,0,0,0-2.94.22,16.45,16.45,0,0,0-1.7.33c-.3.08-1.52.25-1.68.52a6.91,6.91,0,0,1,1.58,0c.68,0,1.36-.1,2-.17a30,30,0,0,1,3.79-.2c0,.22-.87.61-1.08.76a12.77,12.77,0,0,0-1.35,1.08,14.11,14.11,0,0,0-2.15,2.38c.15-.24.9-.56,1.17-.74.42-.3.84-.62,1.23-1s.71-.66,1-1a6.55,6.55,0,0,1,1.23-1.29s.21.13.32.08.25-.31.28-.32a4.87,4.87,0,0,1,1.61.06l3.34.18c.34,0,.63-.06.76.19s-.11,1-.18,1.28a6.77,6.77,0,0,1-1.5,2.93,12.11,12.11,0,0,1-5.09,3.37c-7.49,2.71-15.46,3.8-23,1-3.11-1.17-7.78-3.26-7.22-7.37m34-6.72s.48.85.62,1.11c.28.54.54,1.09.78,1.64a9.79,9.79,0,0,0-1.4-2.75m-6.64,4.08a7.33,7.33,0,0,0-1.95-1.55c-.18-.1-1.59-.77-1.68-.62-.21.34,3.46,2,3.63,2.17"/></clipPath><clipPath id="clip-path-11" transform="translate(2.64 2.64)"><rect class="cls-2" x="114.63" y="163.05" width="443.2" height="144.74"/></clipPath><clipPath id="clip-path-12" transform="translate(2.64 2.64)"><path class="cls-1" d="M556.93,253.48c6.45,40.19-149.92,66.4-284.5,48.11S76.1,211.85,140.32,173.78,550.48,213.28,556.93,253.48Z"/></clipPath><clipPath id="clip-path-14" transform="translate(2.64 2.64)"><rect class="cls-2" x="192.07" y="3.19" width="83.99" height="159.53" rx="4.23"/></clipPath><clipPath id="clip-path-16" transform="translate(2.64 2.64)"><circle class="cls-2" cx="233.8" cy="144.76" r="7.92"/></clipPath><clipPath id="clip-path-18" transform="translate(2.64 2.64)"><circle class="cls-2" cx="226.94" cy="12.7" r="1.06"/></clipPath><clipPath id="clip-path-20" transform="translate(2.64 2.64)"><path class="cls-1" d="M231.69,11.64h9a1.06,1.06,0,1,1,0,2.12h-9a1.06,1.06,0,0,1,0-2.12Z"/></clipPath><clipPath id="clip-path-22" transform="translate(2.64 2.64)"><rect class="cls-2" x="199.47" y="17.98" width="69.2" height="28.53" rx="2.11"/></clipPath><clipPath id="clip-path-24" transform="translate(2.64 2.64)"><rect class="cls-2" x="220.07" y="26.54" width="38.56" height="4.28" rx="1.58"/></clipPath><clipPath id="clip-path-26" transform="translate(2.64 2.64)"><rect class="cls-2" x="220.07" y="33.67" width="25.88" height="4.28" rx="1.58"/></clipPath><clipPath id="clip-path-28" transform="translate(2.64 2.64)"><circle class="cls-2" cx="210.56" cy="32.25" r="6.34"/></clipPath><clipPath id="clip-path-30" transform="translate(2.64 2.64)"><rect class="cls-2" x="199.47" y="50.73" width="69.2" height="22.19" rx="2.11"/></clipPath><clipPath id="clip-path-32" transform="translate(2.64 2.64)"><rect class="cls-2" x="220.07" y="57.39" width="38.56" height="3.33" rx="1.58"/></clipPath><clipPath id="clip-path-34" transform="translate(2.64 2.64)"><rect class="cls-2" x="220.07" y="62.94" width="25.88" height="3.33" rx="1.58"/></clipPath><clipPath id="clip-path-36" transform="translate(2.64 2.64)"><circle class="cls-2" cx="210.56" cy="61.83" r="6.34"/></clipPath><clipPath id="clip-path-38" transform="translate(2.64 2.64)"><rect class="cls-2" x="199.47" y="77.15" width="69.2" height="22.19" rx="2.11"/></clipPath><clipPath id="clip-path-40" transform="translate(2.64 2.64)"><rect class="cls-2" x="220.07" y="83.8" width="38.56" height="3.33" rx="1.58"/></clipPath><clipPath id="clip-path-42" transform="translate(2.64 2.64)"><rect class="cls-2" x="220.07" y="89.35" width="25.88" height="3.33" rx="1.58"/></clipPath><clipPath id="clip-path-44" transform="translate(2.64 2.64)"><circle class="cls-2" cx="210.56" cy="88.24" r="6.34"/></clipPath><clipPath id="clip-path-46" transform="translate(2.64 2.64)"><rect class="cls-2" x="199.47" y="103.56" width="69.2" height="22.19" rx="2.11"/></clipPath><clipPath id="clip-path-48" transform="translate(2.64 2.64)"><rect class="cls-2" x="220.07" y="110.21" width="38.56" height="3.33" rx="1.58"/></clipPath><clipPath id="clip-path-50" transform="translate(2.64 2.64)"><rect class="cls-2" x="220.07" y="115.76" width="25.88" height="3.33" rx="1.58"/></clipPath><clipPath id="clip-path-52" transform="translate(2.64 2.64)"><circle class="cls-2" cx="210.56" cy="114.65" r="6.34"/></clipPath><clipPath id="clip-path-54" transform="translate(2.64 2.64)"><path class="cls-1" d="M213.87,134.35c-.7,0-1.4,0-2.1.05-.53,0-1.34-.09-1.79.25s-.44,1-.37,1.55a11.25,11.25,0,0,0,3.31,6.84,19.07,19.07,0,0,0,10.65,5,8.66,8.66,0,0,0,7.71-2.24,32,32,0,0,1,3.33,9.32,22.68,22.68,0,0,1,.33,4.8c0,1-.09,2.07-.2,3.11-.05.45-.28,1.13-.1,1.55a.71.71,0,0,0,1.21.13,3.47,3.47,0,0,0,.27-1.47c.09-.7.17-1.4.23-2.1.09-1.13.17-2.26.16-3.4a25.21,25.21,0,0,0-1.36-7.54,25.84,25.84,0,0,0-7.66-12,14.76,14.76,0,0,0-8-3.24,39.92,39.92,0,0,0-5.66-.58"/></clipPath><clipPath id="clip-path-56" transform="translate(2.64 2.64)"><path class="cls-1" d="M224.66,152.83c-7.55,0-12.64,6.09-15,12.42a34.08,34.08,0,0,0-1.47,7.51,11.12,11.12,0,0,1-.4,2.74c-.12.26-.39.35-.26.71a.59.59,0,0,0,.47.39c.47.08,1.14-.43,1.55-.64a17.41,17.41,0,0,0,7.41-7.52,32.46,32.46,0,0,0,2.93-6.23,22,22,0,0,0,.78-4.12,15.07,15.07,0,0,0,.11-1.65,3.46,3.46,0,0,0-.44-1.3,11.2,11.2,0,0,1,7.92-.23,10.19,10.19,0,0,1,5.42,4.91,9.46,9.46,0,0,1,.66,1.8,6,6,0,0,0,.31,1.3c.47.9,1.46.3,1.37-.53a10.75,10.75,0,0,0-3.29-6.25,11.78,11.78,0,0,0-8-3.31"/></clipPath><clipPath id="clip-path-58" transform="translate(2.64 2.64)"><rect class="cls-2" x="232.81" y="19.19" width="83.99" height="159.53" rx="4.23"/></clipPath><clipPath id="clip-path-60" transform="translate(2.64 2.64)"><circle class="cls-2" cx="274.54" cy="160.76" r="7.92"/></clipPath><clipPath id="clip-path-62" transform="translate(2.64 2.64)"><circle class="cls-2" cx="267.68" cy="28.7" r="1.06"/></clipPath><clipPath id="clip-path-64" transform="translate(2.64 2.64)"><path class="cls-1" d="M272.43,27.64h9a1.06,1.06,0,1,1,0,2.11h-9a1.06,1.06,0,1,1,0-2.11Z"/></clipPath><clipPath id="clip-path-66" transform="translate(2.64 2.64)"><rect class="cls-2" x="240.21" y="33.98" width="69.2" height="28.53" rx="2.11"/></clipPath><clipPath id="clip-path-68" transform="translate(2.64 2.64)"><rect class="cls-2" x="244.96" y="42.54" width="38.56" height="4.28" rx="1.58"/></clipPath><clipPath id="clip-path-70" transform="translate(2.64 2.64)"><rect class="cls-2" x="244.96" y="49.67" width="25.88" height="4.28" rx="1.58"/></clipPath><clipPath id="clip-path-72" transform="translate(2.64 2.64)"><circle class="cls-2" cx="302.01" cy="48.24" r="3.7"/></clipPath><clipPath id="clip-path-74" transform="translate(2.64 2.64)"><circle class="cls-2" cx="302.01" cy="48.24" r="1.58"/></clipPath><clipPath id="clip-path-76" transform="translate(2.64 2.64)"><rect class="cls-2" x="240.21" y="66.73" width="69.2" height="22.19" rx="2.11"/></clipPath><clipPath id="clip-path-78" transform="translate(2.64 2.64)"><rect class="cls-2" x="260.81" y="73.39" width="38.56" height="3.33" rx="1.58"/></clipPath><clipPath id="clip-path-80" transform="translate(2.64 2.64)"><rect class="cls-2" x="260.81" y="78.93" width="25.88" height="3.33" rx="1.58"/></clipPath><clipPath id="clip-path-82" transform="translate(2.64 2.64)"><circle class="cls-2" cx="251.3" cy="77.82" r="6.34"/></clipPath><clipPath id="clip-path-84" transform="translate(2.64 2.64)"><rect class="cls-2" x="240.21" y="93.14" width="69.2" height="22.19" rx="2.11"/></clipPath><clipPath id="clip-path-86" transform="translate(2.64 2.64)"><rect class="cls-2" x="244.96" y="99.8" width="38.56" height="3.33" rx="1.58"/></clipPath><clipPath id="clip-path-88" transform="translate(2.64 2.64)"><rect class="cls-2" x="244.96" y="105.35" width="25.88" height="3.33" rx="1.58"/></clipPath><clipPath id="clip-path-90" transform="translate(2.64 2.64)"><circle class="cls-2" cx="302.01" cy="104.24" r="3.7"/></clipPath><clipPath id="clip-path-92" transform="translate(2.64 2.64)"><circle class="cls-2" cx="302.01" cy="104.24" r="1.58"/></clipPath><clipPath id="clip-path-94" transform="translate(2.64 2.64)"><rect class="cls-2" x="240.21" y="119.56" width="69.2" height="22.19" rx="2.11"/></clipPath><clipPath id="clip-path-96" transform="translate(2.64 2.64)"><rect class="cls-2" x="260.81" y="126.21" width="38.56" height="3.33" rx="1.58"/></clipPath><clipPath id="clip-path-98" transform="translate(2.64 2.64)"><rect class="cls-2" x="260.81" y="131.76" width="25.88" height="3.33" rx="1.58"/></clipPath><clipPath id="clip-path-100" transform="translate(2.64 2.64)"><circle class="cls-2" cx="251.3" cy="130.65" r="6.34"/></clipPath><clipPath id="clip-path-102" transform="translate(2.64 2.64)"><rect class="cls-2" x="292.58" y="36.48" width="176.96" height="182.77" rx="4.23"/></clipPath><clipPath id="clip-path-104" transform="translate(2.64 2.64)"><rect class="cls-2" x="424.11" y="59.2" width="36.98" height="42.79" rx="4.23"/></clipPath><clipPath id="clip-path-106" transform="translate(2.64 2.64)"><circle class="cls-2" cx="442.6" cy="75.57" r="8.45"/></clipPath><clipPath id="clip-path-108" transform="translate(2.64 2.64)"><path class="cls-1" d="M431,86.14h23.24a1.59,1.59,0,1,1,0,3.17H431a1.59,1.59,0,0,1,0-3.17Z"/></clipPath><clipPath id="clip-path-110" transform="translate(2.64 2.64)"><path class="cls-1" d="M435.21,91.42H450a1.59,1.59,0,0,1,0,3.17H435.21a1.59,1.59,0,1,1,0-3.17Z"/></clipPath><clipPath id="clip-path-112" transform="translate(2.64 2.64)"><path class="cls-1" d="M296.81,36.48H465.32a4.23,4.23,0,0,1,4.22,4.23v10h-177v-10A4.23,4.23,0,0,1,296.81,36.48Z"/></clipPath><clipPath id="clip-path-114" transform="translate(2.64 2.64)"><circle class="cls-2" cx="299.45" cy="43.88" r="2.11"/></clipPath><clipPath id="clip-path-116" transform="translate(2.64 2.64)"><circle class="cls-2" cx="305.79" cy="43.88" r="2.11"/></clipPath><clipPath id="clip-path-118" transform="translate(2.64 2.64)"><circle class="cls-2" cx="312.13" cy="43.88" r="2.11"/></clipPath><clipPath id="clip-path-120" transform="translate(2.64 2.64)"><rect class="cls-2" x="424.11" y="106.21" width="36.98" height="102.48" rx="4.23"/></clipPath><clipPath id="clip-path-122" transform="translate(2.64 2.64)"><rect class="cls-2" x="433.62" y="115.72" width="17.96" height="13.73" rx="2.11"/></clipPath><clipPath id="clip-path-124" transform="translate(2.64 2.64)"><rect class="cls-2" x="433.62" y="133.68" width="17.96" height="13.21" rx="2.11"/></clipPath><clipPath id="clip-path-126" transform="translate(2.64 2.64)"><rect class="cls-2" x="433.62" y="151.11" width="17.96" height="13.21" rx="2.11"/></clipPath><clipPath id="clip-path-128" transform="translate(2.64 2.64)"><rect class="cls-2" x="433.62" y="185.98" width="17.96" height="13.21" rx="2.11"/></clipPath><clipPath id="clip-path-130" transform="translate(2.64 2.64)"><rect class="cls-2" x="433.62" y="168.55" width="17.96" height="13.21" rx="2.11"/></clipPath><clipPath id="clip-path-132" transform="translate(2.64 2.64)"><rect class="cls-2" x="301.03" y="59.73" width="118.85" height="24.83" rx="2.11"/></clipPath><clipPath id="clip-path-134" transform="translate(2.64 2.64)"><rect class="cls-2" x="305.79" y="67.18" width="88.22" height="3.72" rx="1.58"/></clipPath><clipPath id="clip-path-136" transform="translate(2.64 2.64)"><rect class="cls-2" x="305.79" y="73.38" width="59.21" height="3.72" rx="1.58"/></clipPath><clipPath id="clip-path-138" transform="translate(2.64 2.64)"><circle class="cls-2" cx="407.19" cy="72.14" r="3.7"/></clipPath><clipPath id="clip-path-140" transform="translate(2.64 2.64)"><circle class="cls-2" cx="407.19" cy="72.14" r="1.58"/></clipPath><clipPath id="clip-path-142" transform="translate(2.64 2.64)"><rect class="cls-2" x="301.03" y="88.78" width="118.85" height="20.6" rx="2.11"/></clipPath><clipPath id="clip-path-144" transform="translate(2.64 2.64)"><path class="cls-1" d="M307.33,95h85.13a1.55,1.55,0,0,1,0,3.09H307.33a1.55,1.55,0,0,1,0-3.09Z"/></clipPath><clipPath id="clip-path-146" transform="translate(2.64 2.64)"><path class="cls-1" d="M307.33,100.11h56.13a1.55,1.55,0,0,1,0,3.09H307.33a1.55,1.55,0,0,1,0-3.09Z"/></clipPath><clipPath id="clip-path-148" transform="translate(2.64 2.64)"><circle class="cls-2" cx="407.19" cy="99.08" r="3.7"/></clipPath><clipPath id="clip-path-150" transform="translate(2.64 2.64)"><circle class="cls-2" cx="407.19" cy="99.08" r="1.58"/></clipPath><clipPath id="clip-path-152" transform="translate(2.64 2.64)"><rect class="cls-2" x="301.03" y="113.61" width="118.85" height="20.6" rx="2.11"/></clipPath><clipPath id="clip-path-154" transform="translate(2.64 2.64)"><path class="cls-1" d="M307.33,119.79h85.13a1.55,1.55,0,0,1,0,3.09H307.33a1.55,1.55,0,0,1,0-3.09Z"/></clipPath><clipPath id="clip-path-156" transform="translate(2.64 2.64)"><path class="cls-1" d="M307.33,124.94h56.13a1.55,1.55,0,0,1,0,3.09H307.33a1.55,1.55,0,0,1,0-3.09Z"/></clipPath><clipPath id="clip-path-158" transform="translate(2.64 2.64)"><circle class="cls-2" cx="407.19" cy="123.91" r="3.7"/></clipPath><clipPath id="clip-path-160" transform="translate(2.64 2.64)"><circle class="cls-2" cx="407.19" cy="123.91" r="1.58"/></clipPath><clipPath id="clip-path-162" transform="translate(2.64 2.64)"><rect class="cls-2" x="301.03" y="188.09" width="118.85" height="20.6" rx="2.11"/></clipPath><clipPath id="clip-path-164" transform="translate(2.64 2.64)"><path class="cls-1" d="M307.33,194.27h85.13a1.55,1.55,0,0,1,0,3.09H307.33a1.55,1.55,0,0,1,0-3.09Z"/></clipPath><clipPath id="clip-path-166" transform="translate(2.64 2.64)"><path class="cls-1" d="M307.33,199.42h56.13a1.55,1.55,0,0,1,0,3.09H307.33a1.55,1.55,0,0,1,0-3.09Z"/></clipPath><clipPath id="clip-path-168" transform="translate(2.64 2.64)"><circle class="cls-2" cx="407.19" cy="198.39" r="3.7"/></clipPath><clipPath id="clip-path-170" transform="translate(2.64 2.64)"><circle class="cls-2" cx="407.19" cy="198.39" r="1.58"/></clipPath><clipPath id="clip-path-172" transform="translate(2.64 2.64)"><rect class="cls-2" x="301.03" y="163.26" width="118.85" height="20.6" rx="2.11"/></clipPath><clipPath id="clip-path-174" transform="translate(2.64 2.64)"><path class="cls-1" d="M307.33,169.44h85.13a1.55,1.55,0,0,1,0,3.09H307.33a1.55,1.55,0,0,1,0-3.09Z"/></clipPath><clipPath id="clip-path-176" transform="translate(2.64 2.64)"><path class="cls-1" d="M307.33,174.59h56.13a1.55,1.55,0,0,1,0,3.09H307.33a1.55,1.55,0,0,1,0-3.09Z"/></clipPath><clipPath id="clip-path-178" transform="translate(2.64 2.64)"><circle class="cls-2" cx="407.19" cy="173.56" r="3.7"/></clipPath><clipPath id="clip-path-180" transform="translate(2.64 2.64)"><circle class="cls-2" cx="407.19" cy="173.56" r="1.58"/></clipPath><clipPath id="clip-path-182" transform="translate(2.64 2.64)"><rect class="cls-2" x="301.03" y="138.44" width="118.85" height="20.6" rx="2.11"/></clipPath><clipPath id="clip-path-184" transform="translate(2.64 2.64)"><path class="cls-1" d="M307.33,144.62h85.13a1.55,1.55,0,0,1,0,3.09H307.33a1.55,1.55,0,0,1,0-3.09Z"/></clipPath><clipPath id="clip-path-186" transform="translate(2.64 2.64)"><path class="cls-1" d="M307.33,149.77h56.13a1.55,1.55,0,0,1,0,3.09H307.33a1.55,1.55,0,0,1,0-3.09Z"/></clipPath><clipPath id="clip-path-188" transform="translate(2.64 2.64)"><circle class="cls-2" cx="407.19" cy="148.74" r="3.7"/></clipPath><clipPath id="clip-path-190" transform="translate(2.64 2.64)"><circle class="cls-2" cx="407.19" cy="148.74" r="1.58"/></clipPath><clipPath id="clip-path-192" transform="translate(2.64 2.64)"><path class="cls-1" d="M539.61,135.53a13.24,13.24,0,0,0-7.34-1.78c-9.74,0-18.9,3.61-26.8,9a62.77,62.77,0,0,0-11.64,10.61,31.53,31.53,0,0,0-5,7.42A25.71,25.71,0,0,0,487,166.5a57.87,57.87,0,0,0-1,7.29c-.07,1-.62,6.06,1,6.15,0,.12,0,.24,0,.35-3.47,5.43-5.61,11.79-7.6,17.82a121.32,121.32,0,0,0-4.27,16,173.08,173.08,0,0,0-2.6,21.65c-.09,1.56-.15,3.11-.2,4.67,0,1.33-.09,2.67-.13,4a26.25,26.25,0,0,0-.08,4.69c.21,1.29,1.33,1.09,1.38-.19.06-1.55,0-3.11.11-4.66.1-2.06.19-4.12.29-6.18a144.48,144.48,0,0,1,8.19-41.93,98.65,98.65,0,0,1,7.12-15.71,109.91,109.91,0,0,1,8.74-12.77,81,81,0,0,1,9.94-11,76.63,76.63,0,0,1,9.78-7.19A106.83,106.83,0,0,1,531,141.88c2.45-1.1,4.94-2.09,7.41-3.14.44-.19.92-.38,1.34-.6,1.43-.73,1-1.84-.18-2.61"/></clipPath><clipPath id="clip-path-194" transform="translate(2.64 2.64)"><path class="cls-1" d="M499.88,187.08a26.91,26.91,0,0,1,11.1,2.09,48.65,48.65,0,0,1,8.78,5.1,27.58,27.58,0,0,1,9.15,10.17c1.29,2.53,2.23,6.11,1.37,8.87-1,3.25-3.82,6-7.5,5.39-2.28-.35-4.37-1.86-6.1-3.28a23.12,23.12,0,0,1-5.1-6c-2.24-3.7-3.55-7.88-5.45-11.74-.9-1.84-1.77-3.69-2.84-5.43a8.92,8.92,0,0,0-1.92-2.36c-.43-.34-2.26-.94-1.56-1.71a22.57,22.57,0,0,0-21.28,17.74c-.18.91-.33,1.82-.48,2.74-.09.57-.05,2.7-.57,3.07-1.14.81-.66-1.66-.61-2,.13-.92.26-1.84.4-2.76A23,23,0,0,1,484,193.78a23.32,23.32,0,0,1,15.92-6.7"/></clipPath><clipPath id="clip-path-196" transform="translate(2.64 2.64)"><path class="cls-1" d="M517.28,22.76a1.58,1.58,0,0,1,1.58,1.59v10a1.58,1.58,0,1,1-3.16,0v-10A1.59,1.59,0,0,1,517.28,22.76Z"/></clipPath><clipPath id="clip-path-197" transform="translate(2.64 2.64)"><rect class="cls-2" x="131.8" y="-48.57" width="494.44" height="418.37"/></clipPath><clipPath id="clip-path-198" transform="translate(2.64 2.64)"><path class="cls-1" d="M524.68,14.31a1.58,1.58,0,0,1,1.58,1.58V34.38a1.59,1.59,0,1,1-3.17,0V15.89A1.59,1.59,0,0,1,524.68,14.31Z"/></clipPath><clipPath id="clip-path-200" transform="translate(2.64 2.64)"><path class="cls-1" d="M532.07,10.08a1.59,1.59,0,0,1,1.59,1.59V34.38a1.59,1.59,0,1,1-3.17,0V11.67A1.59,1.59,0,0,1,532.07,10.08Z"/></clipPath><clipPath id="clip-path-202" transform="translate(2.64 2.64)"><path class="cls-1" d="M539.47,14.31a1.58,1.58,0,0,1,1.58,1.58V34.38a1.59,1.59,0,1,1-3.17,0V15.89A1.59,1.59,0,0,1,539.47,14.31Z"/></clipPath><clipPath id="clip-path-204" transform="translate(2.64 2.64)"><path class="cls-1" d="M546.86,5.86a1.59,1.59,0,0,1,1.59,1.58V34.38a1.59,1.59,0,1,1-3.17,0V7.44A1.58,1.58,0,0,1,546.86,5.86Z"/></clipPath><clipPath id="clip-path-206" transform="translate(2.64 2.64)"><path class="cls-1" d="M110.25,163.69A10.67,10.67,0,0,1,120.82,153v10.7l-7.22,7.79A10.6,10.6,0,0,1,110.25,163.69Z"/></clipPath><clipPath id="clip-path-208" transform="translate(2.64 2.64)"><path class="cls-1" d="M120.54,163.56H131.2a10.58,10.58,0,0,1-2.9,7.22,10.76,10.76,0,0,1-7.76,3.34,10.89,10.89,0,0,1-7.3-2.88Z"/></clipPath><clipPath id="clip-path-210" transform="translate(2.64 2.64)"><path class="cls-1" d="M115.53,153l4.23,9.51-9.51-4.23A9.72,9.72,0,0,1,115.53,153Zm15.85,10.57A10.6,10.6,0,0,0,120.82,153v10.57Z"/></clipPath><clipPath id="clip-path-212" transform="translate(2.64 2.64)"><path class="cls-1" d="M541.18,168.58a5.55,5.55,0,1,1-4-9.34v-10.3a15.85,15.85,0,1,0,0,31.69,15.68,15.68,0,0,0,11.57-5Z"/></clipPath><clipPath id="clip-path-214" transform="translate(2.64 2.64)"><path class="cls-1" d="M537.08,148.94v10.3a5.54,5.54,0,0,1,5.54,5.55h10.3A15.89,15.89,0,0,0,537.08,148.94Z"/></clipPath><clipPath id="clip-path-216" transform="translate(2.64 2.64)"><path class="cls-1" d="M542.41,164.79a5.63,5.63,0,0,1-2.16,4.43l6.47,8.24a16,16,0,0,0,6.2-12.67Z"/></clipPath><clipPath id="clip-path-218" transform="translate(2.64 2.64)"><path class="cls-1" d="M481.61,15.06a4.27,4.27,0,1,1-3.12-7.16V0a12.23,12.23,0,0,0-12.23,12.15A12.23,12.23,0,0,0,478.49,24.3a12.08,12.08,0,0,0,8.9-3.85Z"/></clipPath><clipPath id="clip-path-219" transform="translate(2.64 2.64)"><rect class="cls-2" x="124.25" y="-60.71" width="494.44" height="418.37"/></clipPath><clipPath id="clip-path-220" transform="translate(2.64 2.64)"><path class="cls-1" d="M478.41,0V7.9a4.25,4.25,0,0,1,4.25,4.25h7.9A12.19,12.19,0,0,0,478.41,0Z"/></clipPath><clipPath id="clip-path-222" transform="translate(2.64 2.64)"><path class="cls-1" d="M482.68,12.15a4.2,4.2,0,0,1-1.63,3.32l4.86,6.19a12.06,12.06,0,0,0,4.65-9.51Z"/></clipPath><clipPath id="clip-path-224" transform="translate(2.64 2.64)"><path class="cls-1" d="M171.53,8.57h0"/></clipPath><clipPath id="clip-path-226" transform="translate(2.64 2.64)"><path class="cls-1" d="M171.52,8.58h0"/></clipPath><clipPath id="clip-path-228" transform="translate(2.64 2.64)"><path class="cls-1" d="M171.56,8.49a.14.14,0,0,0,0,.06v0c-.11.27,0,.09,0,0"/></clipPath><clipPath id="clip-path-230" transform="translate(2.64 2.64)"><path class="cls-1" d="M171.54,8.55l0,0c0,.06,0,0,0,0"/></clipPath><clipPath id="clip-path-232" transform="translate(2.64 2.64)"><polygon class="cls-1" points="171.53 8.57 171.53 8.57 171.53 8.57 171.53 8.57"/></clipPath><clipPath id="clip-path-234" transform="translate(2.64 2.64)"><polyline class="cls-1" points="171.53 8.58 171.53 8.57 171.53 8.58"/></clipPath><clipPath id="clip-path-238" transform="translate(2.64 2.64)"><polyline class="cls-1" points="171.52 8.58 171.53 8.57 171.52 8.58"/></clipPath><clipPath id="clip-path-240" transform="translate(2.64 2.64)"><rect class="cls-2" x="31.51" y="3.72" width="50.18" height="33.28" rx="2.11"/></clipPath><clipPath id="clip-path-241" transform="translate(2.64 2.64)"><rect class="cls-2" x="13.96" y="-56.7" width="494.44" height="418.37"/></clipPath><clipPath id="clip-path-242" transform="translate(2.64 2.64)"><polygon class="cls-1" points="50.52 13.23 35.73 37 65.31 37 50.52 13.23"/></clipPath><clipPath id="clip-path-244" transform="translate(2.64 2.64)"><polygon class="cls-1" points="65.05 19.57 52.11 37 77.99 37 65.05 19.57"/></clipPath><clipPath id="clip-path-246" transform="translate(2.64 2.64)"><circle class="cls-2" cx="70.6" cy="14.81" r="4.75"/></clipPath><clipPath id="clip-path-248" transform="translate(2.64 2.64)"><path class="cls-1" d="M490.3,270.45v0s0,0,0,0"/></clipPath><clipPath id="clip-path-250" transform="translate(2.64 2.64)"><path class="cls-1" d="M490.31,270.46h0s0,0,0,0"/></clipPath><clipPath id="clip-path-252" transform="translate(2.64 2.64)"><path class="cls-1" d="M490.27,270.37l0,.06,0,0c.11.28,0,.1,0,0"/></clipPath><clipPath id="clip-path-254" transform="translate(2.64 2.64)"><path class="cls-1" d="M490.29,270.43l0,0c0,.06,0,0,0,0"/></clipPath><clipPath id="clip-path-256" transform="translate(2.64 2.64)"><polygon class="cls-1" points="490.31 270.46 490.31 270.46 490.31 270.46 490.31 270.46"/></clipPath><clipPath id="clip-path-258" transform="translate(2.64 2.64)"><polyline class="cls-1" points="490.31 270.46 490.31 270.46 490.31 270.46"/></clipPath><clipPath id="clip-path-260" transform="translate(2.64 2.64)"><path class="cls-1" d="M490.31,270.47h0"/></clipPath><clipPath id="clip-path-262" transform="translate(2.64 2.64)"><polyline class="cls-1" points="490.31 270.46 490.31 270.46 490.31 270.46"/></clipPath><clipPath id="clip-path-264" transform="translate(2.64 2.64)"><rect class="cls-2" x="452.8" y="229.78" width="75.01" height="49.65" rx="2.11"/></clipPath><clipPath id="clip-path-266" transform="translate(2.64 2.64)"><polygon class="cls-1" points="499.96 244.05 521.65 279.44 478.27 279.44 499.96 244.05"/></clipPath><clipPath id="clip-path-268" transform="translate(2.64 2.64)"><polygon class="cls-1" points="477.6 253.53 496.77 279.44 458.43 279.44 477.6 253.53"/></clipPath><clipPath id="clip-path-270" transform="translate(2.64 2.64)"><circle class="cls-2" cx="469.44" cy="246.42" r="7.13"/></clipPath><clipPath id="clip-path-272" transform="translate(2.64 2.64)"><path class="cls-1" d="M5.25,197.24c9.86,16.54,21.34,32.56,28.24,50.65-.28-2.13-.57-4.26-.9-6.39-1.75-11.27-3.93-22.46-6.21-33.64q-1.75-8.54-3.66-17c-.68-3.05-1.35-6.09-2-9.14-.17-.73-.31-2-.52-3.33,6.7,22,13.16,44,17.89,66.53q.93,4.44,1.58,8.86c.15-.68.29-1.35.45-2a131.24,131.24,0,0,1,8.2-23.51A71.75,71.75,0,0,1,54,217.84c1.38-2,4.63-4.47,5.88-6.56-6.87,12.61-9.35,28.38-13.32,42.08-1,3.35-1.94,6.68-2.9,10,6-12,15.27-21.86,28.18-26.14-15.62,10.33-25,28.41-31.31,46.9,0,.22-.05.44-.07.66a24.72,24.72,0,0,1,7.37-8.95c6.79-4.79,14.33-3.39,20.91.71-5.17-3.29-14.51-.29-18.86,3.05a44,44,0,0,0-8.09,8.72c-.55.75-1.3,1.63-2.1,2.56a115.6,115.6,0,0,1-5.53,21.64c.43-2.06.12-5.34.24-6.87,0-.17,0-.33,0-.5-.4,1.57-.78,3.12-1.14,4.64a64.59,64.59,0,0,0,1.43-9c.08-1.32.15-2.64.23-4q0-3.75-.3-7.53c-.62-2.44-1.31-4.75-1.88-6.66A86.6,86.6,0,0,0,24,262.91a78.08,78.08,0,0,0-12.13-15.38c-2.53-2.49-5.17-4.87-7.78-7.27A55.63,55.63,0,0,0,0,236.14c10.61,5.84,21.53,12.17,29.26,21.59-.9-3.48-1.89-6.92-2.93-10.28C21,230.37,14.36,212.68,5.25,197.24Z"/></clipPath><clipPath id="clip-path-273" transform="translate(2.64 2.64)"><rect class="cls-2" x="-10.56" y="-56.7" width="494.44" height="418.37"/></clipPath><clipPath id="clip-path-274" transform="translate(2.64 2.64)"><path class="cls-1" d="M15.85,290.88c0,19,1.5,34.34,21.66,34.34s21.65-15.38,21.65-34.34"/></clipPath><clipPath id="clip-path-276" transform="translate(2.64 2.64)"><path class="cls-1" d="M246.58,157.31c3.44,6.42,3,22.71-1.42,23.85-1.77.46-5.56-.66-9.4-3l2.41,17.09H223.91l4.91-22.89c-2.74-3.21-4.59-7.15-4.28-11.56C225.43,148.1,243.13,150.9,246.58,157.31Z"/></clipPath><clipPath id="clip-path-277" transform="translate(2.64 2.64)"><rect class="cls-2" x="191.82" y="133.46" width="80.7" height="62.28"/></clipPath><clipPath id="clip-path-278" transform="translate(2.64 2.64)"><path class="cls-1" d="M240.94,150.32a18.94,18.94,0,0,0-6-.66,10.2,10.2,0,0,0,.73-5.18,16,16,0,0,0-1.68-4.7,6.59,6.59,0,0,0-1.25-1.94,4.3,4.3,0,0,0-2-1.08,5.5,5.5,0,0,0-2.32,0c-.34.07-.64.23-1,.31s-.51-.12-.75-.34a4.24,4.24,0,0,0-2.21-.85,5.55,5.55,0,0,0-2.52.3,5,5,0,0,0-2.1,1.34,3.36,3.36,0,0,0-.62,1c-.06.15-.07.24-.22.29s-.29,0-.43.1a5.41,5.41,0,0,0-3.13,2.83,9,9,0,0,0-.49,3.69,16,16,0,0,0,2.74,7,8.72,8.72,0,0,0,4.5,2.55,13,13,0,0,0-2.35,4.39,21.55,21.55,0,0,0-1.08,5.34,17.2,17.2,0,0,0,.27,5.26,5.71,5.71,0,0,0,2.55,3.71,12.06,12.06,0,0,0,2,.92,12.18,12.18,0,0,0,2,.65,4.08,4.08,0,0,0,3.84-.82,6.84,6.84,0,0,0,1-1.31c.1-.17.16-.28,0-.44a3.15,3.15,0,0,0-.54-.49,5.1,5.1,0,0,1-1.81-3.39c-.17-1.4.21-3.19,1.56-3.8,1.67-.75,3.51.11,5,.91a8.16,8.16,0,0,1,4-5.25c2.25-1.13,4.83-1.26,7.14-2.23a4.29,4.29,0,0,0,1.66-1.06,2.07,2.07,0,0,0,.47-.78,1.22,1.22,0,0,0-.33-1C246.64,154,242.89,150.92,240.94,150.32Z"/></clipPath><clipPath id="clip-path-280" transform="translate(2.64 2.64)"><ellipse class="cls-2" cx="222.65" cy="304.82" rx="45.76" ry="43.84"/></clipPath><clipPath id="clip-path-281" transform="translate(2.64 2.64)"><rect class="cls-2" x="147.91" y="245.1" width="192.28" height="141.92"/></clipPath><clipPath id="clip-path-282" transform="translate(2.64 2.64)"><path class="cls-1" d="M278.86,289.19c-22,3.17-53.18,6.45-55.85,6.82-3.74.51-6.57-5.38-2.18-7.11,7-2.77,31.4-11.41,43.18-13.86,3.39-.7,6.67-1.35,9.76-1.94C282.94,271.34,287.69,287.92,278.86,289.19Zm22.79-21.79c3,7.81,8.27,33.5,14.59,72.3L309,341.81c-7.6-16.86-13.1-31.54-15.31-39.29-3.78-13.26-6.65-24.93-7.38-29.29C284.6,262.84,299.66,262.23,301.65,267.4Z"/></clipPath><clipPath id="clip-path-284" transform="translate(2.64 2.64)"><path class="cls-1" d="M246.15,245.1q54.75,14,56,17.92l0,.09.05.07c7.23,10,11.57,58.63,13,62.28l-13.86,2.07c-5.31-19.7-22.27-33.43-21.82-57a7.8,7.8,0,0,1-.1-2l-37.74-19.24V245.1Z"/></clipPath><clipPath id="clip-path-286" transform="translate(2.64 2.64)"><path class="cls-1" d="M248.16,245.1c5.28,1.52,32.77,13.07,47,19.21,9.44,4.07,6.46,18.72,1.12,22.54a.53.53,0,0,1-.3.46c-28.75,11.94-51.5,5.68-59.09,7.68l-3.52-11.11L244.8,280c-3.45-.69-6.63-1.31-9.35-1.78-17.58-3.09-22.7-12.52-19.67-33.08Z"/></clipPath><clipPath id="clip-path-288" transform="translate(2.64 2.64)"><path class="cls-1" d="M223.2,287.28a13,13,0,0,0-4.17.86,30.23,30.23,0,0,0-4,2.54q.83,1.68,14.78,30.29,4.45-.71,3.53-3.41t-1.51-4.49l-.62-17.2a.53.53,0,0,0-.55-.51h0l-2.7.17a11,11,0,0,1-3-3.3,9.83,9.83,0,0,1-.65-3.92,1.06,1.06,0,0,0-1.08-1Z"/></clipPath><clipPath id="clip-path-290" transform="translate(2.64 2.64)"><path class="cls-1" d="M305.39,338.76a13.15,13.15,0,0,0-1.05,4.13,30.6,30.6,0,0,0,.53,4.69h33.71c.87-2.88.37-4.43-1.52-4.66s-3.45-.44-4.7-.63l-15.73-7a.53.53,0,0,0-.7.27h0l-1,2.49a10.85,10.85,0,0,1-4.26,1.22,10,10,0,0,1-3.81-1.13h0a1.06,1.06,0,0,0-1.4.51Z"/></clipPath><clipPath id="clip-path-292" transform="translate(2.64 2.64)"><path class="cls-1" d="M278.33,237l16.83,16.39a50.86,50.86,0,0,1,12,6.91c.71.84,1.47,2.47-1.84,1.74s-6.82-1.34-7.44-.27,1.21,2.73.06,4.13q-1.16,1.41-7.74-8.94l-17.5-10.31ZM196,222.17l13,.05q-14.86,48.08-15.78,50.35c-1.38,3.4,1.53,8.58,2.78,11.36-4.06,1.81-3.62-4.89-8.74-2.52-4.66,2.17-8.21,6.1-13.61,2.78-.66-.41-1.38-1.95.37-3.15,4.37-3,10.67-8.23,11.53-10Q187.31,267.56,196,222.17Z"/></clipPath><clipPath id="clip-path-293" transform="translate(2.64 2.64)"><rect class="cls-2" x="159.77" y="178.99" width="151.91" height="114.21"/></clipPath><clipPath id="clip-path-294" transform="translate(2.64 2.64)"><path class="cls-1" d="M235.66,185.32l5.14-.88c8.09,28.56,49.69,48,52.24,58.71.94,3.92-1.89,5.9-.43,7.09l-6.68,4.88c-1.13-1.32-3.54,1.09-8.58-.59S235.66,219.14,235.66,185.32Z"/></clipPath><clipPath id="clip-path-296" transform="translate(2.64 2.64)"><path class="cls-1" d="M226.26,179.34l16.53,1.15a2.11,2.11,0,0,1,2,2.26h0l-.44,6.34c-.61,37.84,21.3,47.49,16.42,62.66-4,12.53-42.58,26-49.25,13.72-2.7-5-3.93-11-4.07-17.52q-2.55,7.53-4,13c-1.72,6.25-8.35,7.24-8.35,9.65l-8.74-2.41c.59-3.27-3.53-4.86-2.43-12.17q7.43-49.14,39.91-71.23l.24-3.46A2.11,2.11,0,0,1,226.26,179.34Z"/></clipPath><clipPath id="clip-path-298" transform="translate(2.64 2.64)"><path class="cls-1" d="M392.13,119.81c-3.44,6.42-3,22.7,1.42,23.85,1.78.45,5.56-.67,9.4-3l-2.41,17.09H414.8l-4.91-22.88c2.74-3.22,4.59-7.16,4.28-11.57C413.28,110.59,395.58,113.39,392.13,119.81Z"/></clipPath><clipPath id="clip-path-299" transform="translate(2.64 2.64)"><rect class="cls-2" x="366.07" y="95.96" width="80.82" height="62.33"/></clipPath><clipPath id="clip-path-300" transform="translate(2.64 2.64)"><path class="cls-1" d="M413.12,120.05c-3.25-13.36-21.65-5.06-25.2-7.32-.77,4.85,1.73,8.77,10.5,8,1.94,1.08,3.32,3.11,5,5.77a3.49,3.49,0,0,1,1.3-.24,3.56,3.56,0,0,1,2.49,6.11c.83,1.17,1.75,2.38,2.81,3.64,3.95-2.37,6.89-9.27,3.13-15.94Z"/></clipPath><clipPath id="clip-path-302" transform="translate(2.64 2.64)"><polygon class="cls-1" points="424.29 207.95 402.78 283.59 387.08 339.34 375.63 339.34 392.31 207.95 424.29 207.95"/></clipPath><clipPath id="clip-path-303" transform="translate(2.64 2.64)"><rect class="cls-2" x="322.23" y="207.95" width="178.02" height="142.63"/></clipPath><clipPath id="clip-path-304" transform="translate(2.64 2.64)"><path class="cls-1" d="M430,208c.5,39,2.2,60.25,2.72,63.79s8.42,26.08,23.7,67.6H444.6Q415.42,279.6,412,271.74c-2.26-5.23-9.25-26.5-19.78-63.79Z"/></clipPath><clipPath id="clip-path-306" transform="translate(2.64 2.64)"><path class="cls-1" d="M457.46,350l-.6-12.48H444.31q-8.93,6.24-23.3,10.11V350h22.7l7.77-1.18V350Z"/></clipPath><clipPath id="clip-path-308" transform="translate(2.64 2.64)"><path class="cls-1" d="M388.79,350l-.6-12.48H375.64q-8.92,6.24-23.3,10.11V350H375l7.77-1.18V350Z"/></clipPath><clipPath id="clip-path-310" transform="translate(2.64 2.64)"><rect class="cls-2" x="334.23" y="142.98" width="152.13" height="113.04" transform="translate(-23.77 59.04) rotate(-8)"/></clipPath><clipPath id="clip-path-311" transform="translate(2.64 2.64)"><path class="cls-1" d="M373.39,205l-16.84,16.39a51.21,51.21,0,0,0-12,6.92c-.7.84-1.47,2.47,1.84,1.74s6.83-1.34,7.45-.27-1.21,2.72-.06,4.13q1.14,1.41,7.73-9L379,214.64Zm72.14-9.66-12.29,1.78q16.54,35.1,17.77,37.22c1.84,3.18-.32,8.71-1.17,11.64,4.27,1.23,2.91-5.35,8.3-3.71,4.92,1.5,9,4.89,13.86.85.6-.49,1.11-2.12-.8-3.06-4.74-2.36-11.71-6.67-12.8-8.26Q456.2,228.55,445.53,195.33Z"/></clipPath><clipPath id="clip-path-312" transform="translate(2.64 2.64)"><rect class="cls-2" x="-46.49" y="-82.06" width="760.67" height="469.08"/></clipPath><clipPath id="clip-path-314" transform="translate(2.64 2.64)"><path class="cls-1" d="M403.34,148.73l-5.21-.15c-16.59,18.93-19.95,51.3-40.76,71.12l6.54,6.11C403.36,215.21,408,175.65,403.34,148.73Z"/></clipPath><clipPath id="clip-path-317" transform="translate(2.64 2.64)"><path class="cls-1" d="M434.5,209.45l-45,6.33c-2.05.29-2.08-2.73-2-4.27,1-17.75,11.79-38.25,8.34-62.84l12.7-3.86C421.67,160.55,428.37,181.26,434.5,209.45Z"/></clipPath><clipPath id="clip-path-320" transform="translate(2.64 2.64)"><path class="cls-1" d="M409.49,144.67a9,9,0,0,0-1.2.26l-4,.8q-9.18,61.65,1.45,80.35l35.44-5a120.8,120.8,0,0,0,7.76,11.49l9.65-1.36q-4.81-44.19-31.45-71.74a7.53,7.53,0,0,0,3.95-4.42c3.54-9.22,1.17-13.69-4.12-14.52S417.57,143.54,409.49,144.67Z"/></clipPath><clipPath id="clip-path-323" transform="translate(2.64 2.64)"><path class="cls-1" d="M428,222.94l13.16-1.84q-4.87-8-10.57-19.19Q430.87,216.12,428,222.94Z"/></clipPath><clipPath id="clip-path-325" transform="translate(2.64 2.64)"><path class="cls-1" d="M125.54,119.81c3.45,6.42,3,22.7-1.41,23.85-1.78.45-5.56-.67-9.41-3l2.42,17.09H102.87l4.91-22.88c-2.73-3.22-4.59-7.16-4.28-11.57C104.39,110.59,122.1,113.39,125.54,119.81Z"/></clipPath><clipPath id="clip-path-326" transform="translate(2.64 2.64)"><rect class="cls-2" x="70.78" y="95.96" width="80.82" height="62.33"/></clipPath><clipPath id="clip-path-327" transform="translate(2.64 2.64)"><path class="cls-1" d="M114.76,113.19c7.65,0,10.55,3.16,10.7,6-3.28.9-9,1.24-17.24,1.18v.6l7.13.59,1.19,3.57c-1.89-.14-3.24,1.15-4.32,2.89a2.83,2.83,0,0,0-1.62-.51,3.06,3.06,0,0,0-3,3,3.51,3.51,0,0,0,1.8,3.29c-.57,1.11-1.14,1.91-1.8,2.06-2.57-.26-5.94-6.65-5.94-11.89C101.69,118.15,106.25,113.19,114.76,113.19Z"/></clipPath><clipPath id="clip-path-329" transform="translate(2.64 2.64)"><polygon class="cls-1" points="93.39 207.95 115.12 283 125.34 339.34 135.61 339.34 125.36 207.95 93.39 207.95"/></clipPath><clipPath id="clip-path-330" transform="translate(2.64 2.64)"><rect class="cls-2" x="17.43" y="207.95" width="178.02" height="142.63"/></clipPath><clipPath id="clip-path-333" transform="translate(2.64 2.64)"><path class="cls-1" d="M83.62,208c1.51,39,.91,60.25.58,63.79S81.93,299,68.8,340.53H79.47c17.39-39.84,23.46-63.56,25.46-68.79s7.88-26.5,16.48-63.79Z"/></clipPath><clipPath id="clip-path-335" transform="translate(2.64 2.64)"><path class="cls-1" d="M92.92,208q8.47,38.73,29.34,123.66h15c1.11-58.11-3.6-96.36-11.77-123.66Z"/></clipPath><clipPath id="clip-path-337" transform="translate(2.64 2.64)"><path class="cls-1" d="M83.54,208c1.49,39-2.36,77.39-14.29,124.27h16A527.29,527.29,0,0,0,123.71,208Z"/></clipPath><clipPath id="clip-path-339" transform="translate(2.64 2.64)"><path class="cls-1" d="M67.09,348.26l.59-9.51q5.2,1.51,13-1.19,8.49,6,21.37,8.14a1.05,1.05,0,0,1,.87,1.21l0,.12-.86,3H68.27Z"/></clipPath><clipPath id="clip-path-341" transform="translate(2.64 2.64)"><path class="cls-1" d="M123.08,348.26l.59-9.51q5.2,1.51,13-1.19,8.47,6,21.36,8.14a1,1,0,0,1,.87,1.21.5.5,0,0,1,0,.12l-.86,3h-33.8Z"/></clipPath><clipPath id="clip-path-343" transform="translate(2.64 2.64)"><rect class="cls-2" x="36.7" y="133.89" width="134.17" height="155.83" transform="translate(-120.4 285.1) rotate(-82)"/></clipPath><clipPath id="clip-path-344" transform="translate(2.64 2.64)"><path class="cls-1" d="M147.88,201.24l16.83,16.4a51.29,51.29,0,0,1,12,6.91c.7.85,1.47,2.47-1.85,1.74s-6.82-1.34-7.44-.26,1.21,2.72.06,4.12q-1.16,1.41-7.74-8.94l-17.5-10.31ZM63.73,183.59l10.11,3.32Q50.76,220.12,49.19,222c-2.36,2.82-1.2,8.64-.87,11.67-4.42.47-1.93-5.77-7.53-5.09-5.11.62-9.7,3.26-13.8-1.56-.51-.59-.72-2.28,1.32-2.88,5.09-1.5,12.7-4.53,14-5.91Q45.1,215.4,63.73,183.59Z"/></clipPath><clipPath id="clip-path-347" transform="translate(2.64 2.64)"><path class="cls-1" d="M120.82,147.67c6.23,19.34,15.67,38.38,31.22,55.69a20.5,20.5,0,0,1,7.69,2.28,2.66,2.66,0,0,1-.67,5l1.46,1.4-6.09,9C135.9,208.31,118.22,198.2,112,180.62c-2.1-5.89,1.5-24.43,2.18-31.25Z"/></clipPath><clipPath id="clip-path-350" transform="translate(2.64 2.64)"><path class="cls-1" d="M83.18,209.4q27.33,6.94,43.69,6.14c1.35-.07,2.09-5.74,1.7-7.37-6.12-25.43-9.9-43.94-7.54-60.67q-2.82,1-9.22-.88C97.67,162.22,89.5,181.24,83.18,209.4Z"/></clipPath><clipPath id="clip-path-353" transform="translate(2.64 2.64)"><path class="cls-1" d="M114,145.49c-5.63,25.73,13.61,86.35-2.66,133.52-18,1.44-41.25-14.18-66.88-7.91,3.64-19.37,24.89-39.73,34.85-59.23a2.39,2.39,0,0,1-.5-2.33h0l.73-2.25a2.37,2.37,0,0,1,2.53-1.62c.31-.84.6-1.67.85-2.5,2.22-7.17,1.21-14.65,2.29-21.71q-15.89,10.09-31.33,38.17L43.21,214.8q1-2.27,2-4.47c-1.18-.91-2.21-4.45-1.06-4.86a13.05,13.05,0,0,1,3.71-.72q21.75-43.81,59.45-60.2Z"/></clipPath><clipPath id="clip-path-356" transform="translate(2.64 2.64)"><polygon class="cls-1" points="109.64 145.48 105.29 154.37 110.42 162.22 104.12 166.93 114.28 191.66 101.14 166.56 107.34 161.78 102.78 154.85 109.64 145.48"/></clipPath><clipPath id="clip-path-359" transform="translate(2.64 2.64)"><path class="cls-1" d="M109.78,195.22a2.37,2.37,0,1,1-2.68,2A2.38,2.38,0,0,1,109.78,195.22Zm1,13.92a2.37,2.37,0,1,1-2.69,2A2.38,2.38,0,0,1,110.83,209.14Zm-1.31,13.6a2.37,2.37,0,1,1-2.69,2A2.37,2.37,0,0,1,109.52,222.74Z"/></clipPath></defs><title>imagem-fundo</title><g class="cls-4"><g class="cls-5"><rect class="cls-6" x="489.04" y="65.87" width="61.28" height="44.37"/></g></g><g class="cls-7"><g class="cls-5"><rect class="cls-8" x="140.93" y="113.93" width="44.78" height="49.98" transform="translate(-48.39 136.38) rotate(-39)"/></g></g><g class="cls-9"><g class="cls-5"><rect class="cls-10" x="125.39" y="26.78" width="48.71" height="104.1" transform="translate(-14.65 108.64) rotate(-37)"/></g></g><g class="cls-11"><g class="cls-5"><rect class="cls-6" x="492.45" y="90.68" width="51.77" height="69.2"/></g></g><g class="cls-12"><g class="cls-5"><rect class="cls-6" x="135.95" y="81.45" width="34.34" height="48.6" transform="translate(-15.06 182.2) rotate(-58)"/></g></g><g class="cls-13"><g class="cls-14"><g class="cls-15"><g class="cls-14"><rect class="cls-8" x="114.8" y="163.56" width="447.6" height="149.25"/></g></g></g></g><g class="cls-16"><g class="cls-5"><rect class="cls-17" x="192.07" y="3.19" width="89.27" height="164.81"/></g></g><g class="cls-18"><g class="cls-5"><rect class="cls-19" x="225.88" y="136.84" width="21.13" height="21.13"/></g></g><g class="cls-20"><g class="cls-5"><rect class="cls-19" x="225.88" y="11.64" width="7.4" height="7.4"/></g></g><g class="cls-21"><g class="cls-5"><rect class="cls-19" x="230.63" y="11.64" width="16.38" height="7.4"/></g></g><g class="cls-22"><g class="cls-5"><rect class="cls-19" x="199.47" y="17.98" width="74.48" height="33.81"/></g></g><g class="cls-23"><g class="cls-5"><rect class="cls-8" x="220.07" y="26.54" width="43.84" height="9.56"/></g></g><g class="cls-24"><g class="cls-5"><rect class="cls-8" x="220.07" y="33.67" width="31.17" height="9.56"/></g></g><g class="cls-25"><g class="cls-5"><rect class="cls-26" x="204.22" y="25.91" width="17.96" height="17.96"/></g></g><g class="cls-27"><g class="cls-5"><rect class="cls-19" x="199.47" y="50.73" width="74.48" height="27.47"/></g></g><g class="cls-28"><g class="cls-5"><rect class="cls-8" x="220.07" y="57.39" width="43.84" height="8.61"/></g></g><g class="cls-29"><g class="cls-5"><rect class="cls-8" x="220.07" y="62.94" width="31.17" height="8.61"/></g></g><g class="cls-30"><g class="cls-5"><rect class="cls-26" x="204.22" y="55.49" width="17.96" height="17.96"/></g></g><g class="cls-31"><g class="cls-5"><rect class="cls-19" x="199.47" y="77.15" width="74.48" height="27.47"/></g></g><g class="cls-32"><g class="cls-5"><rect class="cls-8" x="220.07" y="83.8" width="43.84" height="8.61"/></g></g><g class="cls-33"><g class="cls-5"><rect class="cls-8" x="220.07" y="89.35" width="31.17" height="8.61"/></g></g><g class="cls-34"><g class="cls-5"><rect class="cls-35" x="204.22" y="81.9" width="17.96" height="17.96"/></g></g><g class="cls-36"><g class="cls-5"><rect class="cls-19" x="199.47" y="103.56" width="74.48" height="27.47"/></g></g><g class="cls-37"><g class="cls-5"><rect class="cls-8" x="220.07" y="110.21" width="43.84" height="8.61"/></g></g><g class="cls-38"><g class="cls-5"><rect class="cls-8" x="220.07" y="115.76" width="31.17" height="8.61"/></g></g><g class="cls-39"><g class="cls-5"><rect class="cls-26" x="204.22" y="108.31" width="17.96" height="17.96"/></g></g><g class="cls-40"><g class="cls-5"><rect class="cls-6" x="209.57" y="134.35" width="32.22" height="35.92"/></g></g><g class="cls-41"><g class="cls-5"><rect class="cls-6" x="207.46" y="152.83" width="33.81" height="29.05"/></g></g><g class="cls-42"><g class="cls-5"><rect class="cls-8" x="232.81" y="19.19" width="89.27" height="164.81"/></g></g><g class="cls-43"><g class="cls-5"><rect class="cls-19" x="266.62" y="152.83" width="21.13" height="21.13"/></g></g><g class="cls-44"><g class="cls-5"><rect class="cls-19" x="266.62" y="27.64" width="7.4" height="7.4"/></g></g><g class="cls-45"><g class="cls-5"><rect class="cls-19" x="271.37" y="27.64" width="16.38" height="7.4"/></g></g><g class="cls-46"><g class="cls-5"><rect class="cls-19" x="240.21" y="33.98" width="74.48" height="33.81"/></g></g><g class="cls-47"><g class="cls-5"><rect class="cls-8" x="244.96" y="42.54" width="43.84" height="9.56"/></g></g><g class="cls-48"><g class="cls-5"><rect class="cls-8" x="244.96" y="49.67" width="31.17" height="9.56"/></g></g><g class="cls-49"><g class="cls-5"><rect class="cls-8" x="298.32" y="44.54" width="12.68" height="12.68"/></g></g><g class="cls-50"><g class="cls-5"><rect class="cls-17" x="300.43" y="46.66" width="8.45" height="8.45"/></g></g><g class="cls-51"><g class="cls-5"><rect class="cls-19" x="240.21" y="66.73" width="74.48" height="27.47"/></g></g><g class="cls-52"><g class="cls-5"><rect class="cls-8" x="260.81" y="73.39" width="43.84" height="8.61"/></g></g><g class="cls-53"><g class="cls-5"><rect class="cls-8" x="260.81" y="78.93" width="31.17" height="8.61"/></g></g><g class="cls-54"><g class="cls-5"><rect class="cls-26" x="244.96" y="71.49" width="17.96" height="17.96"/></g></g><g class="cls-55"><g class="cls-5"><rect class="cls-19" x="240.21" y="93.14" width="74.48" height="27.47"/></g></g><g class="cls-56"><g class="cls-5"><rect class="cls-8" x="244.96" y="99.8" width="43.84" height="8.61"/></g></g><g class="cls-57"><g class="cls-5"><rect class="cls-35" x="244.96" y="105.35" width="31.17" height="8.61"/></g></g><g class="cls-58"><g class="cls-5"><rect class="cls-8" x="298.32" y="100.54" width="12.68" height="12.68"/></g></g><g class="cls-59"><g class="cls-5"><rect class="cls-17" x="300.43" y="102.65" width="8.45" height="8.45"/></g></g><g class="cls-60"><g class="cls-5"><rect class="cls-19" x="240.21" y="119.56" width="74.48" height="27.47"/></g></g><g class="cls-61"><g class="cls-5"><rect class="cls-8" x="260.81" y="126.21" width="43.84" height="8.61"/></g></g><g class="cls-62"><g class="cls-5"><rect class="cls-8" x="260.81" y="131.76" width="31.17" height="8.61"/></g></g><g class="cls-63"><g class="cls-5"><rect class="cls-26" x="244.96" y="124.31" width="17.96" height="17.96"/></g></g><g class="cls-64"><g class="cls-5"><rect class="cls-17" x="292.58" y="36.48" width="182.24" height="188.05"/></g></g><g class="cls-65"><g class="cls-5"><rect class="cls-19" x="424.11" y="59.2" width="42.26" height="48.07"/></g></g><g class="cls-66"><g class="cls-5"><rect class="cls-8" x="434.15" y="67.12" width="22.19" height="22.19"/></g></g><g class="cls-67"><g class="cls-5"><rect class="cls-8" x="429.4" y="86.14" width="31.69" height="8.45"/></g></g><g class="cls-68"><g class="cls-5"><rect class="cls-8" x="433.62" y="91.42" width="23.24" height="8.45"/></g></g><g class="cls-69"><g class="cls-5"><rect class="cls-26" x="292.58" y="36.48" width="182.24" height="19.55"/></g></g><g class="cls-70"><g class="cls-5"><rect class="cls-17" x="297.34" y="41.77" width="9.51" height="9.51"/></g></g><g class="cls-71"><g class="cls-5"><rect class="cls-17" x="303.67" y="41.77" width="9.51" height="9.51"/></g></g><g class="cls-72"><g class="cls-5"><rect class="cls-17" x="310.01" y="41.77" width="9.51" height="9.51"/></g></g><g class="cls-73"><g class="cls-5"><rect class="cls-19" x="424.11" y="106.21" width="42.26" height="107.76"/></g></g><g class="cls-74"><g class="cls-5"><rect class="cls-8" x="433.62" y="115.72" width="23.24" height="19.02"/></g></g><g class="cls-75"><g class="cls-5"><rect class="cls-35" x="433.62" y="133.68" width="23.24" height="18.49"/></g></g><g class="cls-76"><g class="cls-5"><rect class="cls-8" x="433.62" y="151.11" width="23.24" height="18.49"/></g></g><g class="cls-77"><g class="cls-5"><rect class="cls-8" x="433.62" y="185.98" width="23.24" height="18.49"/></g></g><g class="cls-78"><g class="cls-5"><rect class="cls-26" x="433.62" y="168.55" width="23.24" height="18.49"/></g></g><g class="cls-79"><g class="cls-5"><rect class="cls-19" x="301.03" y="59.73" width="124.14" height="30.11"/></g></g><g class="cls-80"><g class="cls-5"><rect class="cls-8" x="305.79" y="67.18" width="93.5" height="9.01"/></g></g><g class="cls-81"><g class="cls-5"><rect class="cls-8" x="305.79" y="73.38" width="64.5" height="9.01"/></g></g><g class="cls-82"><g class="cls-5"><rect class="cls-8" x="403.49" y="68.44" width="12.68" height="12.68"/></g></g><g class="cls-83"><g class="cls-5"><rect class="cls-17" x="405.6" y="70.56" width="8.45" height="8.45"/></g></g><g class="cls-84"><g class="cls-5"><rect class="cls-19" x="301.03" y="88.78" width="124.14" height="25.88"/></g></g><g class="cls-85"><g class="cls-5"><rect class="cls-8" x="305.79" y="94.96" width="93.5" height="8.37"/></g></g><g class="cls-86"><g class="cls-5"><rect class="cls-8" x="305.79" y="100.11" width="64.5" height="8.37"/></g></g><g class="cls-87"><g class="cls-5"><rect class="cls-8" x="403.49" y="95.38" width="12.68" height="12.68"/></g></g><g class="cls-88"><g class="cls-5"><rect class="cls-17" x="405.6" y="97.5" width="8.45" height="8.45"/></g></g><g class="cls-89"><g class="cls-5"><rect class="cls-19" x="301.03" y="113.61" width="124.14" height="25.88"/></g></g><g class="cls-90"><g class="cls-5"><rect class="cls-8" x="305.79" y="119.79" width="93.5" height="8.37"/></g></g><g class="cls-91"><g class="cls-5"><rect class="cls-8" x="305.79" y="124.94" width="64.5" height="8.37"/></g></g><g class="cls-92"><g class="cls-5"><rect class="cls-8" x="403.49" y="120.21" width="12.68" height="12.68"/></g></g><g class="cls-93"><g class="cls-5"><rect class="cls-35" x="405.6" y="122.32" width="8.45" height="8.45"/></g></g><g class="cls-94"><g class="cls-5"><rect class="cls-19" x="301.03" y="188.09" width="124.14" height="25.88"/></g></g><g class="cls-95"><g class="cls-5"><rect class="cls-8" x="305.79" y="194.27" width="93.5" height="8.37"/></g></g><g class="cls-96"><g class="cls-5"><rect class="cls-8" x="305.79" y="199.42" width="64.5" height="8.37"/></g></g><g class="cls-97"><g class="cls-5"><rect class="cls-8" x="403.49" y="194.69" width="12.68" height="12.68"/></g></g><g class="cls-98"><g class="cls-5"><rect class="cls-17" x="405.6" y="196.81" width="8.45" height="8.45"/></g></g><g class="cls-99"><g class="cls-5"><rect class="cls-19" x="301.03" y="163.26" width="124.14" height="25.88"/></g></g><g class="cls-100"><g class="cls-5"><rect class="cls-8" x="305.79" y="169.44" width="93.5" height="8.37"/></g></g><g class="cls-101"><g class="cls-5"><rect class="cls-8" x="305.79" y="174.59" width="64.5" height="8.37"/></g></g><g class="cls-102"><g class="cls-5"><rect class="cls-8" x="403.49" y="169.87" width="12.68" height="12.68"/></g></g><g class="cls-103"><g class="cls-5"><rect class="cls-17" x="405.6" y="171.98" width="8.45" height="8.45"/></g></g><g class="cls-104"><g class="cls-5"><rect class="cls-19" x="301.03" y="138.44" width="124.14" height="25.88"/></g></g><g class="cls-105"><g class="cls-5"><rect class="cls-8" x="305.79" y="144.62" width="93.5" height="8.37"/></g></g><g class="cls-106"><g class="cls-5"><rect class="cls-8" x="305.79" y="149.77" width="64.5" height="8.37"/></g></g><g class="cls-107"><g class="cls-5"><rect class="cls-8" x="403.49" y="145.04" width="12.68" height="12.68"/></g></g><g class="cls-108"><g class="cls-5"><rect class="cls-17" x="405.6" y="147.15" width="8.45" height="8.45"/></g></g><g class="cls-109"><g class="cls-5"><rect class="cls-10" x="472.01" y="133.75" width="73.95" height="121.5"/></g></g><g class="cls-110"><g class="cls-5"><rect class="cls-6" x="476.73" y="187.08" width="59.16" height="36.98"/></g></g><g class="cls-111"><g class="cls-112"><rect class="cls-113" x="515.7" y="22.76" width="8.45" height="18.49"/></g></g><g class="cls-114"><g class="cls-112"><rect class="cls-113" x="523.09" y="14.31" width="8.45" height="26.94"/></g></g><g class="cls-115"><g class="cls-112"><rect class="cls-113" x="530.49" y="10.08" width="8.45" height="31.17"/></g></g><g class="cls-116"><g class="cls-112"><rect class="cls-113" x="537.88" y="14.31" width="8.45" height="26.94"/></g></g><g class="cls-117"><g class="cls-112"><rect class="cls-113" x="545.28" y="5.86" width="8.45" height="35.39"/></g></g><g class="cls-118"><g class="cls-5"><rect class="cls-17" x="110.25" y="152.99" width="15.85" height="23.77"/></g></g><g class="cls-119"><g class="cls-5"><rect class="cls-35" x="113.24" y="163.56" width="23.24" height="15.85"/></g></g><g class="cls-120"><g class="cls-5"><rect class="cls-26" x="110.25" y="152.99" width="26.41" height="15.85"/></g></g><g class="cls-121"><g class="cls-5"><rect class="cls-17" x="521.23" y="148.94" width="32.75" height="36.98"/></g></g><g class="cls-122"><g class="cls-5"><rect class="cls-35" x="537.08" y="148.94" width="21.13" height="21.13"/></g></g><g class="cls-123"><g class="cls-5"><rect class="cls-26" x="540.25" y="164.79" width="17.96" height="17.96"/></g></g><g class="cls-124"><g class="cls-125"><rect class="cls-17" x="466.26" width="26.41" height="29.58"/></g></g><g class="cls-126"><g class="cls-125"><rect class="cls-35" x="478.41" width="17.43" height="17.43"/></g></g><g class="cls-127"><g class="cls-125"><rect class="cls-26" x="481.05" y="12.15" width="14.79" height="14.79"/></g></g><g class="cls-128"><g class="cls-5"><rect class="cls-26" x="171.52" y="8.56" width="5.29" height="5.3"/></g></g><g class="cls-129"><g class="cls-5"><rect class="cls-26" x="171.52" y="8.57" width="5.29" height="5.29"/></g></g><g class="cls-130"><g class="cls-5"><rect class="cls-26" x="171.49" y="8.49" width="5.35" height="5.46"/></g></g><g class="cls-131"><g class="cls-5"><rect class="cls-26" x="171.51" y="8.55" width="5.31" height="5.33"/></g></g><g class="cls-132"><g class="cls-5"><rect class="cls-26" x="171.53" y="8.57" width="5.28" height="5.28"/></g></g><g class="cls-133"><g class="cls-5"><rect class="cls-26" x="171.52" y="8.57" width="5.28" height="5.28"/></g></g><g class="cls-129"><g class="cls-5"><rect class="cls-26" x="171.52" y="8.56" width="5.3" height="5.3"/></g></g><g class="cls-134"><g class="cls-5"><rect class="cls-26" x="171.52" y="8.57" width="5.28" height="5.28"/></g></g><g class="cls-135"><g class="cls-136"><rect class="cls-8" x="31.51" y="3.72" width="55.47" height="38.56"/></g></g><g class="cls-137"><g class="cls-136"><rect class="cls-35" x="35.73" y="13.23" width="34.86" height="29.05"/></g></g><g class="cls-138"><g class="cls-136"><rect class="cls-26" x="52.11" y="19.57" width="31.17" height="22.71"/></g></g><g class="cls-139"><g class="cls-136"><rect class="cls-19" x="65.84" y="10.06" width="14.79" height="14.79"/></g></g><g class="cls-140"><g class="cls-5"><rect class="cls-26" x="490.3" y="270.45" width="5.29" height="5.3"/></g></g><g class="cls-141"><g class="cls-5"><rect class="cls-26" x="490.3" y="270.45" width="5.29" height="5.29"/></g></g><g class="cls-142"><g class="cls-5"><rect class="cls-26" x="490.27" y="270.37" width="5.35" height="5.46"/></g></g><g class="cls-143"><g class="cls-5"><rect class="cls-26" x="490.29" y="270.43" width="5.31" height="5.33"/></g></g><g class="cls-144"><g class="cls-5"><rect class="cls-26" x="490.31" y="270.46" width="5.28" height="5.28"/></g></g><g class="cls-145"><g class="cls-5"><rect class="cls-26" x="490.31" y="270.46" width="5.28" height="5.28"/></g></g><g class="cls-146"><g class="cls-5"><rect class="cls-26" x="490.3" y="270.45" width="5.3" height="5.3"/></g></g><g class="cls-147"><g class="cls-5"><rect class="cls-26" x="490.31" y="270.46" width="5.28" height="5.28"/></g></g><g class="cls-148"><g class="cls-5"><rect class="cls-8" x="452.8" y="229.78" width="80.29" height="54.94"/></g></g><g class="cls-149"><g class="cls-5"><rect class="cls-35" x="478.27" y="244.05" width="48.66" height="40.67"/></g></g><g class="cls-150"><g class="cls-5"><rect class="cls-26" x="458.43" y="253.53" width="43.63" height="31.19"/></g></g><g class="cls-151"><g class="cls-5"><rect class="cls-19" x="462.31" y="239.29" width="19.55" height="19.55"/></g></g><g class="cls-152"><g class="cls-153"><rect class="cls-154" y="178.36" width="77.12" height="139.46"/></g></g><g class="cls-155"><g class="cls-153"><rect class="cls-26" x="15.85" y="290.88" width="48.6" height="39.62"/></g></g><g class="cls-156"><g class="cls-157"><rect class="cls-158" x="223.91" y="151.89" width="30.24" height="48.66"/></g></g><g class="cls-159"><g class="cls-157"><rect class="cls-160" x="214.99" y="135.84" width="38.27" height="44.8"/></g></g><g class="cls-161"><g class="cls-162"><rect class="cls-113" x="176.89" y="260.98" width="96.8" height="92.95"/></g></g><g class="cls-163"><g class="cls-162"><rect class="cls-158" x="218.6" y="264.22" width="102.92" height="82.87"/></g></g><g class="cls-164"><g class="cls-162"><rect class="cls-154" x="241.66" y="245.1" width="78.8" height="87.71"/></g></g><g class="cls-165"><g class="cls-162"><rect class="cls-166" x="214.96" y="245.1" width="91.64" height="55.17"/></g></g><g class="cls-167"><g class="cls-162"><rect class="cls-168" x="219.14" y="283.11" width="17.59" height="39.94" transform="translate(-107.15 133.23) rotate(-26)"/></g></g><g class="cls-169"><g class="cls-162"><rect class="cls-168" x="304.34" y="335.27" width="39.94" height="17.59"/></g></g><g class="cls-170"><g class="cls-171"><rect class="cls-158" x="172.95" y="222.17" width="140.15" height="68.58"/></g></g><g class="cls-172"><g class="cls-171"><rect class="cls-173" x="227.89" y="186.17" width="72.26" height="67.84" transform="translate(24.4 466.56) rotate(-85)"/></g></g><g class="cls-174"><g class="cls-171"><rect class="cls-175" x="183.67" y="179.33" width="83.06" height="96.52"/></g></g><g class="cls-176"><g class="cls-177"><rect class="cls-178" x="389.84" y="114.38" width="30.24" height="48.66"/></g></g><g class="cls-179"><g class="cls-177"><rect class="cls-160" x="387.79" y="112.22" width="32.36" height="29.08"/></g></g><g class="cls-180"><g class="cls-181"><rect class="cls-182" x="375.63" y="207.95" width="53.94" height="136.68"/></g></g><g class="cls-183"><g class="cls-181"><rect class="cls-184" x="392.25" y="207.95" width="69.5" height="136.68"/></g></g><g class="cls-185"><g class="cls-181"><rect class="cls-186" x="421.01" y="337.56" width="41.73" height="17.76"/></g></g><g class="cls-187"><g class="cls-181"><rect class="cls-186" x="352.34" y="337.56" width="41.73" height="17.76"/></g></g><g class="cls-188"><g class="cls-189"><g class="cls-190"><rect class="cls-178" x="341.49" y="197.88" width="130.99" height="58.05" transform="translate(-24.98 61.49) rotate(-8)"/></g></g></g><g class="cls-188"><g class="cls-191"><g class="cls-190"><rect class="cls-192" x="348.02" y="150.77" width="66.05" height="72.84" transform="translate(-29.7 93.15) rotate(-13)"/></g></g></g><g class="cls-188"><g class="cls-193"><g class="cls-190"><rect class="cls-8" x="380.29" y="142.79" width="52.38" height="72.91" transform="translate(-18.35 60.96) rotate(-8)"/></g></g></g><g class="cls-188"><g class="cls-194"><g class="cls-190"><rect class="cls-113" x="395.52" y="138.18" width="59.44" height="99.91" transform="translate(-19.4 63.65) rotate(-8)"/></g></g></g><g class="cls-188"><g class="cls-195"><g class="cls-190"><rect class="cls-196" x="423.86" y="199.01" width="18.56" height="25.75" transform="translate(-22.63 64.99) rotate(-8)"/></g></g></g><g class="cls-197"><g class="cls-198"><rect class="cls-178" x="102.87" y="114.38" width="30.24" height="48.66"/></g></g><g class="cls-199"><g class="cls-198"><rect class="cls-160" x="101.69" y="113.19" width="29.05" height="27.86"/></g></g><g class="cls-200"><g class="cls-201"><rect class="cls-202" x="93.39" y="207.95" width="47.5" height="136.68"/></g></g><g class="cls-200"><g class="cls-201"><rect class="cls-196" x="93.39" y="207.95" width="47.5" height="136.68"/></g></g><g class="cls-203"><g class="cls-201"><rect class="cls-202" x="68.8" y="207.95" width="57.9" height="137.87"/></g></g><g class="cls-204"><g class="cls-201"><rect class="cls-182" x="92.92" y="207.95" width="49.79" height="128.95"/></g></g><g class="cls-205"><g class="cls-201"><rect class="cls-184" x="69.25" y="207.95" width="59.74" height="129.56"/></g></g><g class="cls-206"><g class="cls-201"><rect class="cls-186" x="67.09" y="337.56" width="41.17" height="17.76"/></g></g><g class="cls-207"><g class="cls-201"><rect class="cls-186" x="123.08" y="337.56" width="41.17" height="17.76"/></g></g><g class="cls-208"><g class="cls-209"><g class="cls-190"><rect class="cls-178" x="74.79" y="134.12" width="56.38" height="155.63" transform="translate(-112.98 302.53) rotate(-86)"/></g></g></g><g class="cls-208"><g class="cls-210"><g class="cls-190"><rect class="cls-211" x="100.3" y="154.22" width="73.25" height="60.06" transform="translate(-61.95 296.84) rotate(-82)"/></g></g></g><g class="cls-208"><g class="cls-212"><g class="cls-190"><rect class="cls-182" x="73.39" y="155.11" width="73.38" height="50.47" transform="translate(-81.19 266.9) rotate(-82)"/></g></g></g><g class="cls-208"><g class="cls-213"><g class="cls-190"><rect class="cls-214" x="13.58" y="166.64" width="139.35" height="84.45" transform="translate(-132.52 264.87) rotate(-82)"/></g></g></g><g class="cls-208"><g class="cls-215"><g class="cls-190"><rect class="cls-196" x="84.06" y="157.29" width="50.37" height="21.79" transform="translate(-69.87 255.6) rotate(-82)"/></g></g></g><g class="cls-208"><g class="cls-216"><g class="cls-190"><rect class="cls-217" x="90.66" y="204.53" width="37.32" height="13.6" transform="translate(-112.53 292.81) rotate(-82)"/></g></g></g></svg>