<?xml version="1.0" encoding="utf-8"?>
<!-- Generator: Adobe Illustrator 24.0.1, SVG Export Plug-In . SVG Version: 6.00 Build 0)  -->
<svg version="1.1" id="Camada_1" xmlns="http://www.w3.org/2000/svg" xmlns:xlink="http://www.w3.org/1999/xlink" x="0px" y="0px"
	 viewBox="0 0 674.4 653.6" style="enable-background:new 0 0 674.4 653.6;" xml:space="preserve">
<style type="text/css">
	.st0{fill:#FFFFFF;}
	.st1{fill:#192D54;}
	.st2{fill:#FF9000;}
</style>
<g>
	<path class="st0" d="M480.1,156.2c-3.3-3.7-6.8-7-8.6-11.7c-0.2-0.7-0.5-1.3-0.7-2c-1.2-6.1-2.8-12.1-4.1-18.2
		c-3.6-16.8-10.6-32.3-20.5-46.5C430.8,56,410.7,40,385.9,30c-1.8-0.7-3.4-2.1-4,1.5c-5,29.7-10.3,59.4-15.4,89.1
		c-0.4,3.2-0.8,6.3-1.3,9.5c-0.4,0-0.8-0.1-1.2-0.1c0.3-3.2,0.5-6.5,0.8-9.7c0.1-1.1,0.4-2.1,0.4-3.2c1.6-29.5,3.3-59,4.8-88.5
		c0.6-12.5-7.5-21.6-20.1-22.3c-8.4-0.4-16.8-0.4-25.1,0C311.7,6.9,303.6,16,304.2,29c0.9,18.4,1.9,36.8,3,55.2
		c0.7,12,1.5,24,2.2,36c0.2,2.9,0.4,5.8,0.6,8.7c-2.3-2.5-2.6-5.4-2.3-8.4c-5.1-29.3-10.3-58.5-15.2-87.8c-0.6-3.8-1.7-4-4.8-2.7
		c-27.1,11.4-48.7,29.3-64,54.5c-6.7,10.9-12.3,22.4-14.8,35.1c-2.4,9.4-4.9,18.9-7.3,28.3c-10.3,8.5-17.2,19-16.3,32.9
		c0.8,11.8,7.6,20.7,16.1,28.2c13.2,11.6,28.8,18.8,45.3,24c47.9,15.2,96.6,16.9,145.9,8.6c23.4-3.9,46-10.6,66.6-22.9
		c10-6,19.1-13.2,25-23.5C491.8,182.2,490.6,168,480.1,156.2z M211.3,175.4c83.6,39,167.2,39.2,250.7,0.1
		C407.3,218.9,295.7,235.8,211.3,175.4z"/>
	<path class="st0" d="M337.3,6c4.2,0,8.4,0.1,12.7,0.3c12.6,0.7,20.7,9.8,20.1,22.3c-1.5,29.5-3.2,59-4.8,88.5
		c-0.1,1.1-0.3,2.1-0.4,3.2c-0.3,3.2-0.5,6.5-0.8,9.7c0.4,0,0.8,0.1,1.2,0.1c0.4-3.2,0.8-6.3,1.3-9.5c5.2-29.7,10.4-59.4,15.4-89.1
		c0.3-1.8,0.9-2.4,1.6-2.4c0.7,0,1.5,0.5,2.4,0.9c24.8,10,44.9,26,60.3,47.9c9.9,14.1,16.9,29.6,20.5,46.5
		c1.3,6.1,2.9,12.1,4.1,18.2c0.2,0.7,0.5,1.3,0.7,2c1.9,4.7,5.4,8,8.6,11.7c10.5,11.8,11.7,26,4.2,39.2c-5.9,10.4-15,17.6-25,23.5
		c-20.6,12.3-43.1,18.9-66.6,22.9c-19.1,3.2-38.2,4.9-57.1,4.9c-29.9,0-59.5-4.2-88.8-13.5c-16.5-5.2-32.1-12.4-45.3-24
		c-8.6-7.5-15.3-16.4-16.1-28.2c-1-14,5.9-24.4,16.3-32.9c2.4-9.4,4.9-18.9,7.3-28.3c2.5-12.7,8.1-24.2,14.8-35.1
		c15.4-25.1,36.9-43.1,64-54.5c1.1-0.5,1.9-0.7,2.6-0.7c1.2,0,1.8,1,2.2,3.4c4.9,29.3,10.1,58.5,15.2,87.8c-0.3,3,0,5.9,2.3,8.4
		c-0.2-2.9-0.4-5.8-0.6-8.7c-0.7-12-1.5-24-2.2-36c-1-18.4-2.1-36.8-3-55.2c-0.6-13,7.5-22.2,20.6-22.8C329,6.1,333.1,6,337.3,6
		 M337,214.6c49.5,0,95.6-15.7,125.1-39.1c-41.7,19.5-83.4,29.2-125.2,29.2c-41.9,0-83.7-9.8-125.6-29.3
		C250.2,203.2,294.8,214.6,337,214.6 M337.3,0c-4.1,0-8.4,0.1-12.8,0.3c-8,0.4-14.7,3.3-19.5,8.6c-4.8,5.3-7.2,12.4-6.8,20.5
		c0,0.4,0,0.9,0.1,1.3c-1.5-6.3-5.5-7.3-7.9-7.3c-1.8,0-3.5,0.6-4.9,1.2c-28.6,12-51.1,31.1-66.8,56.9
		c-8.2,13.5-13.2,25.2-15.5,36.9l-6.8,26.3c-12.3,10.8-17.9,22.8-16.9,36.7c1.1,15.6,10.9,25.9,18.2,32.3
		c12.4,10.9,27.5,18.9,47.4,25.2c28.9,9.2,59.4,13.8,90.6,13.8c18.8,0,38.3-1.7,58.1-5c27.1-4.5,49.6-12.3,68.6-23.6
		c12.9-7.7,21.5-15.8,27.2-25.7c9-15.7,7.2-32.5-4.9-46.2c-0.5-0.6-1.1-1.2-1.6-1.8c-2.5-2.8-4.7-5.2-5.9-8.1l-0.3-0.9l-0.2-0.6
		c-0.7-3.3-1.4-6.6-2.2-9.8c-0.6-2.6-1.3-5.4-1.8-8c-3.6-17.2-10.8-33.5-21.4-48.7c-15.9-22.7-37.1-39.5-62.9-50
		c-0.2-0.1-0.3-0.1-0.5-0.2c-1-0.4-2.4-1.1-4.2-1.1c-1.1,0-6.4,0.4-7.6,7.4c0,0,0,0,0,0.1c0-0.6,0.1-1.1,0.1-1.7
		c0.4-7.7-1.9-14.7-6.6-19.9c-4.7-5.2-11.5-8.3-19.2-8.7C346.1,0.1,341.7,0,337.3,0L337.3,0z"/>
</g>
<path class="st1" d="M0.3,238.9v302.3c0,11.8,7.9,22.2,19.3,25.3l310.7,85.8c4.6,1.3,9.4,1.3,14,0l310.7-85.8
	c11.4-3.1,19.3-13.5,19.3-25.3V238.9c0-14.5-11.8-26.3-26.3-26.3H26.5C12,212.7,0.3,224.4,0.3,238.9z"/>
<path class="st0" d="M647.9,212.4H26.5C11.9,212.4,0,224.3,0,238.9v302.3c0,11.9,8,22.4,19.5,25.6l310.7,85.8c2.3,0.6,4.7,1,7.1,1
	c2.4,0,4.8-0.3,7.1-1l310.7-85.8c11.5-3.2,19.5-13.7,19.5-25.6V238.9C674.4,224.3,662.5,212.4,647.9,212.4z M667.8,238.9v302.3
	c0,9-6,16.9-14.7,19.3l-310.7,85.8c-3.5,1-7.2,1-10.6,0L21.2,560.5c-8.6-2.4-14.7-10.3-14.7-19.3V238.9c0-11,9-20,20-20h621.3
	C658.9,218.9,667.8,227.9,667.8,238.9z"/>
<g>
	<path class="st0" d="M226.5,525.8h-36.1l-8.9,21.3h-21.1l49.1-113.1h1.2l49.1,113.1H235L226.5,525.8z M219.4,507.8l-10.5-26.5
		L198,507.8H219.4z"/>
	<path class="st0" d="M368.4,547.1H318c-3.9,0.8-7.7,1.2-11.4,1.2c-10,0-19.3-2.5-27.8-7.5c-8.5-5-15.2-11.7-20.2-20.2
		c-5-8.5-7.5-17.7-7.5-27.8c0-9.9,2.5-19.1,7.5-27.6c5-8.6,11.7-15.4,20.2-20.5c8.5-5.1,17.8-7.6,27.7-7.6c10,0,19.2,2.5,27.7,7.6
		c8.5,5.1,15.3,11.9,20.4,20.5c5.1,8.6,7.6,17.8,7.6,27.6c0,6.1-1,12-3,17.7c-2,5.7-4.7,10.9-8.3,15.6h17.3V547.1z M277.9,510.2
		c3,5.3,7.1,9.5,12.3,12.6c5.2,3.1,10.9,4.7,17.2,4.7c6.1,0,11.7-1.6,16.7-4.7c5-3.1,9-7.3,11.8-12.6c2.9-5.3,4.3-11.1,4.3-17.4
		c0-6.3-1.5-12.1-4.4-17.4c-3-5.3-7-9.4-12.1-12.5c-5.1-3.1-10.7-4.6-16.8-4.6c-6.2,0-11.8,1.5-16.9,4.6c-5.1,3.1-9.1,7.2-12,12.5
		c-3,5.3-4.4,11.1-4.4,17.4C273.4,499.2,274.9,505,277.9,510.2z"/>
	<path class="st0" d="M401.8,516.8c2.1,3.2,4.8,5.7,8.3,7.7c3.4,2,7.1,3,11.1,3c4.2,0,8.1-1,11.7-3c3.5-2,6.3-4.5,8.3-7.7
		c2-3.2,3-6.5,3-9.9v-68.6h21.1v69c0,7.8-2,14.8-5.9,21.1c-3.9,6.3-9.3,11.1-16,14.6c-6.8,3.5-14.2,5.2-22.2,5.2
		c-8.1,0-15.5-1.7-22.2-5.2c-6.7-3.5-12-8.4-15.9-14.6c-3.9-6.3-5.8-13.3-5.8-21.1v-69h21.4v68.6
		C398.7,510.4,399.7,513.7,401.8,516.8z"/>
	<path class="st0" d="M502.3,438.3v108.8h-21.4V438.3H502.3z"/>
</g>
<g>
	<path class="st0" d="M82.4,284.4c-4.7,0-8.4,0.9-11,2.8c-2.6,1.9-3.9,4.7-3.9,8.4c0,3.4,1.9,6.5,5.7,9.1c3.8,2.6,8.8,5.1,15.1,7.5
		c5.1,1.9,9.5,4,13.2,6.4c3.6,2.4,6.7,5.7,9.1,10c2.4,4.2,3.6,9.6,3.6,16.1c0,5.6-1.5,10.8-4.4,15.6c-2.9,4.8-7.2,8.6-12.8,11.4
		c-5.6,2.8-12.3,4.2-20.1,4.2c-6.5,0-13-1-19.4-2.9c-6.4-1.9-12.4-4.9-17.9-8.8l9.5-16.7c3.7,2.8,8,5,12.9,6.8
		c4.8,1.8,9.2,2.7,13,2.7c4.5,0,8.5-1,11.8-2.9c3.3-1.9,5-5,5-9.4c0-5.6-5.3-10.5-15.8-14.6c-6.2-2.5-11.4-4.8-15.5-7.1
		c-4.1-2.3-7.7-5.5-10.7-9.8c-3-4.2-4.5-9.6-4.5-16c0-9.4,3.1-16.9,9.2-22.6c6.2-5.7,14.4-8.8,24.6-9.3c8.1,0,14.8,0.9,20.2,2.7
		c5.4,1.8,10.7,4.4,15.8,7.8l-8.1,16.4C97.6,287,89.4,284.4,82.4,284.4z"/>
	<path class="st0" d="M199,265.9v20.7h-52.8v23.2h46.7v20.7h-46.7V354H201v20.7h-76.3V265.9H199z"/>
	<path class="st0" d="M271.5,374.6l-22.9-34.6h-14.3v34.6h-21.4V265.9h33c13.5,0,24,3.3,31.4,9.8c7.4,6.6,11.2,15.5,11.2,26.8
		c0,6.7-1.4,13-4.2,18.8c-2.8,5.9-7.1,10.5-12.9,13.8l25.3,39.5H271.5z M234.3,319.4h15.2c5.8,0,10-1.7,12.7-5.1s4-7.1,4-11
		c0-3.9-1.1-7.7-3.4-11.3c-2.3-3.6-6.7-5.4-13.2-5.4h-15.4V319.4z"/>
	<path class="st0" d="M388,265.9l-49.7,113.8l-49.7-113.8h25.7l24.8,61.3l23.3-61.3H388z"/>
	<path class="st0" d="M417.8,265.9v108.8h-21.4V265.9H417.8z"/>
	<path class="st0" d="M497.7,383.6c3.1,2.3,4.7,5.5,4.7,9.5c0,5.3-2.2,9.4-6.7,12.2c-4.5,2.8-9.9,4.2-16.3,4.2
		c-7.3,0-13.1-2.2-17.3-6.7l6.4-8.1c1,1.2,2.3,2.1,3.8,2.9c1.6,0.7,3.3,1.1,5,1.1c1.9,0,3.7-0.5,5.4-1.4c1.7-0.9,2.6-2.2,2.6-3.9
		c0-3.3-2.6-4.9-7.8-4.9c-2,0-4.9,0.5-8.9,1.6l-2.8-9.8l7.5-5.5c-9.2-1.6-17.1-4.9-23.8-10c-6.7-5.1-11.8-11.5-15.3-19.1
		c-3.5-7.6-5.2-15.8-5.2-24.7c0-10.9,2.2-20.7,6.7-29.3c4.4-8.6,10.6-15.2,18.6-20c8-4.8,17.2-7.2,27.6-7.2c6.6,0,12.7,0.9,18.3,2.7
		s10.5,4,14.8,6.7l-8.4,20.2c-7.8-5.9-15.8-8.9-23.9-8.9c-5.5,0-10.7,1.5-15.5,4.6c-4.8,3.1-8.7,7.2-11.5,12.5
		c-2.9,5.3-4.3,11.1-4.3,17.5c0,7,1.3,13.1,4,18.4c2.7,5.3,6.5,9.4,11.4,12.3c4.9,3,10.7,4.4,17.3,4.4c5.3,0,10.1-0.9,14.3-2.6
		c4.2-1.7,7.6-3.8,10-6.1l8.9,19.2c-2.3,1.9-5.9,3.9-11,6c-5.1,2.1-10.7,3.5-16.9,4.1l-3.5,4C490.6,380,494.6,381.3,497.7,383.6z"/>
	<path class="st0" d="M529,292.8c5-8.6,11.7-15.4,20.2-20.5c8.5-5.1,17.8-7.6,27.7-7.6c10,0,19.2,2.5,27.7,7.6
		c8.5,5.1,15.3,11.9,20.4,20.5c5.1,8.6,7.6,17.8,7.6,27.6c0,10-2.5,19.3-7.6,27.8c-5.1,8.5-11.9,15.2-20.4,20.2
		c-8.5,5-17.8,7.5-27.7,7.5c-10,0-19.3-2.5-27.8-7.5c-8.5-5-15.2-11.7-20.2-20.2c-5-8.5-7.5-17.7-7.5-27.8
		C521.6,310.6,524.1,301.3,529,292.8z M548.3,337.8c3,5.3,7.1,9.5,12.3,12.6c5.2,3.1,10.9,4.7,17.2,4.7c6.1,0,11.7-1.6,16.7-4.7
		c5-3.1,9-7.3,11.8-12.6c2.9-5.3,4.3-11.1,4.3-17.5c0-6.5-1.5-12.4-4.4-17.7c-3-5.3-7-9.5-12-12.6c-5.1-3.1-10.7-4.7-16.9-4.7
		s-11.8,1.6-16.9,4.7c-5.1,3.1-9.1,7.3-12,12.6c-3,5.3-4.4,11.2-4.4,17.7C543.8,326.7,545.3,332.5,548.3,337.8z"/>
</g>
<path class="st2" d="M480.1,156.2c-3.3-3.7-6.8-7-8.6-11.7c-0.2-0.7-0.5-1.3-0.7-2c-1.2-6.1-2.8-12.1-4.1-18.2
	c-3.6-16.8-10.6-32.3-20.5-46.5C430.8,56,410.7,40,385.9,30c-1.8-0.7-3.4-2.1-4,1.5c-5,29.7-10.3,59.4-15.4,89.1
	c-0.4,3.2-0.8,6.3-1.3,9.5c-0.4,0-0.8-0.1-1.2-0.1c0.3-3.2,0.5-6.5,0.8-9.7c0.1-1.1,0.4-2.1,0.4-3.2c1.6-29.5,3.3-59,4.8-88.5
	c0.6-12.5-7.5-21.6-20.1-22.3c-8.4-0.4-16.8-0.4-25.1,0C311.7,6.9,303.6,16,304.2,29c0.9,18.4,1.9,36.8,3,55.2c0.7,12,1.5,24,2.2,36
	c0.2,2.9,0.4,5.8,0.6,8.7c-2.3-2.5-2.6-5.4-2.3-8.4c-5.1-29.3-10.3-58.5-15.2-87.8c-0.6-3.8-1.7-4-4.8-2.7
	c-27.1,11.4-48.7,29.3-64,54.5c-6.7,10.9-12.3,22.4-14.8,35.1c-2.4,9.4-4.9,18.9-7.3,28.3c-10.3,8.5-17.2,19-16.3,32.9
	c0.8,11.8,7.6,20.7,16.1,28.2c13.2,11.6,28.8,18.8,45.3,24c47.9,15.2,96.6,16.9,145.9,8.6c23.4-3.9,46-10.6,66.6-22.9
	c10-6,19.1-13.2,25-23.5C491.8,182.2,490.6,168,480.1,156.2z M211.3,175.4c83.6,39,167.2,39.2,250.7,0.1
	C407.3,218.9,295.7,235.8,211.3,175.4z"/>
</svg>
